  0
SECTION
  2
HEADER
  9
$ACADVER
  1
AC1014
  9
$HANDSEED
  5
FFFF
  9
$MEASUREMENT
 70
     1
  0
ENDSEC
  0
SECTION
  2
TABLES
  0
TABLE
  2
VPORT
  5
8
330
0
100
AcDbSymbolTable
 70
     4
  0
VPORT
  5
2E
330
8
100
AcDbSymbolTableRecord
100
AcDbViewportTableRecord
  2
*ACTIVE
 70
     0
 10
0.0
 20
0.0
 11
1.0
 21
1.0
 12
210.0
 22
148.5
 13
0.0
 23
0.0
 14
10.0
 24
10.0
 15
10.0
 25
10.0
 16
0.0
 26
0.0
 36
1.0
 17
0.0
 27
0.0
 37
0.0
 40
341.0
 41
1.24
 42
50.0
 43
0.0
 44
0.0
 50
0.0
 51
0.0
 71
     0
 72
   100
 73
     1
 74
     3
 75
     0
 76
     0
 77
     0
 78
     0
  0
ENDTAB
  0
TABLE
  2
LTYPE
  5
5
330
0
100
AcDbSymbolTable
 70
     1
  0
LTYPE
  5
14
330
5
100
AcDbSymbolTableRecord
100
AcDbLinetypeTableRecord
  2
BYBLOCK
 70
     0
  3

 72
    65
 73
     0
 40
0.0
  0
LTYPE
  5
15
330
5
100
AcDbSymbolTableRecord
100
AcDbLinetypeTableRecord
  2
BYLAYER
 70
     0
  3

 72
    65
 73
     0
 40
0.0
  0
LTYPE
  5
16
330
5
100
AcDbSymbolTableRecord
100
AcDbLinetypeTableRecord
  2
CONTINUOUS
 70
     0
  3
Solid line
 72
    65
 73
     0
 40
0.0
  0
ENDTAB
  0
TABLE
  2
LAYER
  5
2
100
AcDbSymbolTable
 70
8
  0
LAYER
  5
50
100
AcDbSymbolTableRecord
100
AcDbLayerTableRecord
  2
0
 70
0
  6
CONTINUOUS
  0
LAYER
  5
51
100
AcDbSymbolTableRecord
100
AcDbLayerTableRecord
  2
Rechts
 70
0
  6
CONTINUOUS
  0
LAYER
  5
52
100
AcDbSymbolTableRecord
100
AcDbLayerTableRecord
  2
Hinten
 70
0
  6
CONTINUOUS
  0
LAYER
  5
53
100
AcDbSymbolTableRecord
100
AcDbLayerTableRecord
  2
Links
 70
0
  6
CONTINUOUS
  0
LAYER
  5
54
100
AcDbSymbolTableRecord
100
AcDbLayerTableRecord
  2
Vorne
 70
0
  6
CONTINUOUS
  0
LAYER
  5
55
100
AcDbSymbolTableRecord
100
AcDbLayerTableRecord
  2
Unten
 70
0
  6
CONTINUOUS
  0
LAYER
  5
56
100
AcDbSymbolTableRecord
100
AcDbLayerTableRecord
  2
Mitte
 70
0
  6
CONTINUOUS
  0
LAYER
  5
57
100
AcDbSymbolTableRecord
100
AcDbLayerTableRecord
  2
Oben
 70
0
  6
CONTINUOUS
  0
ENDTAB
  0
TABLE
  2
STYLE
  5
3
330
0
100
AcDbSymbolTable
 70
     1
  0
STYLE
  5
11
330
3
100
AcDbSymbolTableRecord
100
AcDbTextStyleTableRecord
  2
STANDARD
 70
     0
 40
0.0
 41
1.0
 50
0.0
 71
     0
 42
2.5
  3
txt
  4

  0
ENDTAB
  0
TABLE
  2
VIEW
  5
6
330
0
100
AcDbSymbolTable
 70
     0
  0
ENDTAB
  0
TABLE
  2
UCS
  5
7
330
0
100
AcDbSymbolTable
 70
     0
  0
ENDTAB
  0
TABLE
  2
APPID
  5
9
330
0
100
AcDbSymbolTable
 70
     2
  0
APPID
  5
12
330
9
100
AcDbSymbolTableRecord
100
AcDbRegAppTableRecord
  2
ACAD
 70
     0
  0
ENDTAB
  0
TABLE
  2
DIMSTYLE
  5
A
330
0
100
AcDbSymbolTable
 70
     1
  0
DIMSTYLE
105
27
330
A
100
AcDbSymbolTableRecord
100
AcDbDimStyleTableRecord
  2
ISO-25
 70
     0
  3

  4

  5

  6

  7

 40
1.0
 41
2.5
 42
0.625
 43
3.75
 44
1.25
 45
0.0
 46
0.0
 47
0.0
 48
0.0
140
2.5
141
2.5
142
0.0
143
0.03937007874016
144
1.0
145
0.0
146
1.0
147
0.625
 71
     0
 72
     0
 73
     0
 74
     0
 75
     0
 76
     0
 77
     1
 78
     8
170
     0
171
     3
172
     1
173
     0
174
     0
175
     0
176
     0
177
     0
178
     0
270
     2
271
     2
272
     2
273
     2
274
     3
340
11
275
     0
280
     0
281
     0
282
     0
283
     0
284
     8
285
     0
286
     0
287
     3
288
     0
  0
ENDTAB
  0
TABLE
  2
BLOCK_RECORD
  5
1
330
0
100
AcDbSymbolTable
 70
     1
  0
BLOCK_RECORD
  5
1F
330
1
100
AcDbSymbolTableRecord
100
AcDbBlockTableRecord
  2
*MODEL_SPACE
  0
BLOCK_RECORD
  5
1B
330
1
100
AcDbSymbolTableRecord
100
AcDbBlockTableRecord
  2
*PAPER_SPACE
  0
ENDTAB
  0
ENDSEC
  0
SECTION
  2
BLOCKS
  0
BLOCK
  5
20
330
1F
100
AcDbEntity
  8
0
100
AcDbBlockBegin
  2
*MODEL_SPACE
 70
     0
 10
0.0
 20
0.0
 30
0.0
  3
*MODEL_SPACE
  1

  0
ENDBLK
  5
21
330
1F
100
AcDbEntity
  8
0
100
AcDbBlockEnd
  0
BLOCK
  5
1C
330
1B
100
AcDbEntity
 67
     1
  8
0
100
AcDbBlockBegin
  2
*PAPER_SPACE
  1

  0
ENDBLK
  5
1D
330
1B
100
AcDbEntity
 67
     1
  8
0
100
AcDbBlockEnd
  0
ENDSEC
  0
SECTION
  2
ENTITIES
  0
LINE
  5
100
100
AcDbEntity
  8
Rechts
 62
7
100
AcDbLine
 10
83.132064
 20
56.673750
 30
0.0
 11
83.132064
 21
54.557075
 31
0.0
  0
LINE
  5
101
100
AcDbEntity
  8
Rechts
 62
7
100
AcDbLine
 10
83.132064
 20
54.557075
 30
0.0
 11
72.548696
 21
54.557075
 31
0.0
  0
LINE
  5
102
100
AcDbEntity
  8
Rechts
 62
7
100
AcDbLine
 10
72.548696
 20
54.557075
 30
0.0
 11
72.548696
 21
50.561906
 31
0.0
  0
LINE
  5
103
100
AcDbEntity
  8
Rechts
 62
7
100
AcDbLine
 10
72.548696
 20
50.561906
 30
0.0
 11
74.665368
 21
50.561906
 31
0.0
  0
LINE
  5
104
100
AcDbEntity
  8
Rechts
 62
7
100
AcDbLine
 10
74.665368
 20
50.561906
 30
0.0
 11
74.665368
 21
42.624344
 31
0.0
  0
LINE
  5
105
100
AcDbEntity
  8
Rechts
 62
7
100
AcDbLine
 10
74.665368
 20
42.624344
 30
0.0
 11
72.548696
 21
42.624344
 31
0.0
  0
LINE
  5
106
100
AcDbEntity
  8
Rechts
 62
7
100
AcDbLine
 10
72.548696
 20
42.624344
 30
0.0
 11
72.548696
 21
38.682088
 31
0.0
  0
LINE
  5
107
100
AcDbEntity
  8
Rechts
 62
7
100
AcDbLine
 10
72.548696
 20
38.682088
 30
0.0
 11
83.132064
 21
38.682088
 31
0.0
  0
LINE
  5
108
100
AcDbEntity
  8
Rechts
 62
7
100
AcDbLine
 10
83.132064
 20
38.682088
 30
0.0
 11
83.132064
 21
36.565413
 31
0.0
  0
LINE
  5
109
100
AcDbEntity
  8
Rechts
 62
7
100
AcDbLine
 10
83.132064
 20
36.565413
 30
0.0
 11
101.652867
 21
36.565413
 31
0.0
  0
LINE
  5
10a
100
AcDbEntity
  8
Rechts
 62
7
100
AcDbLine
 10
101.652867
 20
36.565413
 30
0.0
 11
101.652867
 21
38.682088
 31
0.0
  0
LINE
  5
10b
100
AcDbEntity
  8
Rechts
 62
7
100
AcDbLine
 10
101.652867
 20
38.682088
 30
0.0
 11
117.527849
 21
38.682088
 31
0.0
  0
LINE
  5
10c
100
AcDbEntity
  8
Rechts
 62
7
100
AcDbLine
 10
117.527849
 20
38.682088
 30
0.0
 11
117.527849
 21
36.565413
 31
0.0
  0
LINE
  5
10d
100
AcDbEntity
  8
Rechts
 62
7
100
AcDbLine
 10
117.527849
 20
36.565413
 30
0.0
 11
134.461248
 21
36.565413
 31
0.0
  0
LINE
  5
10e
100
AcDbEntity
  8
Rechts
 62
7
100
AcDbLine
 10
134.461248
 20
36.565413
 30
0.0
 11
134.461248
 21
38.682088
 31
0.0
  0
LINE
  5
10f
100
AcDbEntity
  8
Rechts
 62
7
100
AcDbLine
 10
134.461248
 20
38.682088
 30
0.0
 11
145.018091
 21
38.682088
 31
0.0
  0
LINE
  5
110
100
AcDbEntity
  8
Rechts
 62
7
100
AcDbLine
 10
145.018091
 20
38.682088
 30
0.0
 11
145.018091
 21
42.624344
 31
0.0
  0
LINE
  5
111
100
AcDbEntity
  8
Rechts
 62
7
100
AcDbLine
 10
145.018091
 20
42.624344
 30
0.0
 11
142.927804
 21
42.624344
 31
0.0
  0
LINE
  5
112
100
AcDbEntity
  8
Rechts
 62
7
100
AcDbLine
 10
142.927804
 20
42.624344
 30
0.0
 11
142.927804
 21
50.561906
 31
0.0
  0
LINE
  5
113
100
AcDbEntity
  8
Rechts
 62
7
100
AcDbLine
 10
142.927804
 20
50.561906
 30
0.0
 11
145.018091
 21
50.561906
 31
0.0
  0
LINE
  5
114
100
AcDbEntity
  8
Rechts
 62
7
100
AcDbLine
 10
145.018091
 20
50.561906
 30
0.0
 11
145.018091
 21
54.557075
 31
0.0
  0
LINE
  5
115
100
AcDbEntity
  8
Rechts
 62
7
100
AcDbLine
 10
145.018091
 20
54.557075
 30
0.0
 11
134.461248
 21
54.557075
 31
0.0
  0
LINE
  5
116
100
AcDbEntity
  8
Rechts
 62
7
100
AcDbLine
 10
134.461248
 20
54.557075
 30
0.0
 11
134.461248
 21
56.673750
 31
0.0
  0
LINE
  5
117
100
AcDbEntity
  8
Rechts
 62
7
100
AcDbLine
 10
134.461248
 20
56.673750
 30
0.0
 11
117.527849
 21
56.673750
 31
0.0
  0
LINE
  5
118
100
AcDbEntity
  8
Rechts
 62
7
100
AcDbLine
 10
117.527849
 20
56.673750
 30
0.0
 11
117.527849
 21
54.557075
 31
0.0
  0
LINE
  5
119
100
AcDbEntity
  8
Rechts
 62
7
100
AcDbLine
 10
117.527849
 20
54.557075
 30
0.0
 11
101.652867
 21
54.557075
 31
0.0
  0
LINE
  5
11a
100
AcDbEntity
  8
Rechts
 62
7
100
AcDbLine
 10
101.652867
 20
54.557075
 30
0.0
 11
101.652867
 21
56.673750
 31
0.0
  0
LINE
  5
11b
100
AcDbEntity
  8
Rechts
 62
7
100
AcDbLine
 10
101.652867
 20
56.673750
 30
0.0
 11
83.132064
 21
56.673750
 31
0.0
  0
LINE
  5
11c
100
AcDbEntity
  8
Rechts
 62
7
100
AcDbLine
 10
83.132064
 20
56.673750
 30
0.0
 11
83.132064
 21
56.673750
 31
0.0
  0
LINE
  5
11d
100
AcDbEntity
  8
Rechts
 62
7
100
AcDbLine
 10
104.528512
 20
53.169841
 30
0.0
 11
105.277230
 21
53.101204
 31
0.0
  0
LINE
  5
11e
100
AcDbEntity
  8
Rechts
 62
7
100
AcDbLine
 10
105.277230
 20
53.101204
 30
0.0
 11
106.029910
 21
52.964887
 31
0.0
  0
LINE
  5
11f
100
AcDbEntity
  8
Rechts
 62
7
100
AcDbLine
 10
106.029910
 20
52.964887
 30
0.0
 11
103.600542
 21
50.172780
 31
0.0
  0
LINE
  5
120
100
AcDbEntity
  8
Rechts
 62
7
100
AcDbLine
 10
103.600542
 20
50.172780
 30
0.0
 11
100.145723
 21
51.770164
 31
0.0
  0
SPLINE
  5
121
100
AcDbEntity
  8
Rechts
 62
7
100
AcDbSpline
 70
8
 71
3
 72
8
 73
4
 74
0
 40
0
 40
0
 40
0
 40
0
 40
1
 40
1
 40
1
 40
1
 10
100.145723
 20
51.770164
 30
0.0
 10
100.620317
 20
52.130638
 30
0.0
 10
101.087631
 20
52.443182
 30
0.0
 10
101.583136
 20
52.628128
 30
0.0
  0
LINE
  5
122
100
AcDbEntity
  8
Rechts
 62
7
100
AcDbLine
 10
101.583136
 20
52.628128
 30
0.0
 11
102.311202
 21
52.899942
 31
0.0
  0
LINE
  5
123
100
AcDbEntity
  8
Rechts
 62
7
100
AcDbLine
 10
102.311202
 20
52.899942
 30
0.0
 11
103.045156
 21
53.076183
 31
0.0
  0
LINE
  5
124
100
AcDbEntity
  8
Rechts
 62
7
100
AcDbLine
 10
103.045156
 20
53.076183
 30
0.0
 11
103.784303
 21
53.163825
 31
0.0
  0
LINE
  5
125
100
AcDbEntity
  8
Rechts
 62
7
100
AcDbLine
 10
103.784303
 20
53.163825
 30
0.0
 11
104.528512
 21
53.169841
 31
0.0
  0
LINE
  5
126
100
AcDbEntity
  8
Rechts
 62
7
100
AcDbLine
 10
104.528512
 20
53.169841
 30
0.0
 11
104.528512
 21
53.169841
 31
0.0
  0
SPLINE
  5
127
100
AcDbEntity
  8
Rechts
 62
7
100
AcDbSpline
 70
8
 71
3
 72
8
 73
4
 74
0
 40
0
 40
0
 40
0
 40
0
 40
1
 40
1
 40
1
 40
1
 10
106.501760
 20
52.790560
 30
0.0
 10
107.051035
 20
52.559312
 30
0.0
 10
107.555059
 20
52.310605
 30
0.0
 10
107.962687
 20
51.973614
 30
0.0
  0
LINE
  5
128
100
AcDbEntity
  8
Rechts
 62
7
100
AcDbLine
 10
107.962687
 20
51.973614
 30
0.0
 11
108.561693
 21
51.478389
 31
0.0
  0
LINE
  5
129
100
AcDbEntity
  8
Rechts
 62
7
100
AcDbLine
 10
108.561693
 20
51.478389
 30
0.0
 11
109.080846
 21
50.930522
 31
0.0
  0
LINE
  5
12a
100
AcDbEntity
  8
Rechts
 62
7
100
AcDbLine
 10
109.080846
 20
50.930522
 30
0.0
 11
109.525891
 21
50.333708
 31
0.0
  0
LINE
  5
12b
100
AcDbEntity
  8
Rechts
 62
7
100
AcDbLine
 10
109.525891
 20
50.333708
 30
0.0
 11
109.902711
 21
49.692048
 31
0.0
  0
LINE
  5
12c
100
AcDbEntity
  8
Rechts
 62
7
100
AcDbLine
 10
109.902711
 20
49.692048
 30
0.0
 11
110.216911
 21
49.008958
 31
0.0
  0
LINE
  5
12d
100
AcDbEntity
  8
Rechts
 62
7
100
AcDbLine
 10
110.216911
 20
49.008958
 30
0.0
 11
110.474639
 21
48.288679
 31
0.0
  0
LINE
  5
12e
100
AcDbEntity
  8
Rechts
 62
7
100
AcDbLine
 10
110.474639
 20
48.288679
 30
0.0
 11
106.842485
 21
48.999798
 31
0.0
  0
LINE
  5
12f
100
AcDbEntity
  8
Rechts
 62
7
100
AcDbLine
 10
106.842485
 20
48.999798
 30
0.0
 11
106.501760
 21
52.790560
 31
0.0
  0
LINE
  5
130
100
AcDbEntity
  8
Rechts
 62
7
100
AcDbLine
 10
106.501760
 20
52.790560
 30
0.0
 11
106.501760
 21
52.790560
 31
0.0
  0
LINE
  5
131
100
AcDbEntity
  8
Rechts
 62
7
100
AcDbLine
 10
106.070386
 20
52.295060
 30
0.0
 11
106.388276
 21
48.994055
 31
0.0
  0
LINE
  5
132
100
AcDbEntity
  8
Rechts
 62
7
100
AcDbLine
 10
106.388276
 20
48.994055
 30
0.0
 11
104.885780
 21
48.546683
 31
0.0
  0
LINE
  5
133
100
AcDbEntity
  8
Rechts
 62
7
100
AcDbLine
 10
104.885780
 20
48.546683
 30
0.0
 11
104.016879
 21
49.899736
 31
0.0
  0
LINE
  5
134
100
AcDbEntity
  8
Rechts
 62
7
100
AcDbLine
 10
104.016879
 20
49.899736
 30
0.0
 11
106.070386
 21
52.295060
 31
0.0
  0
LINE
  5
135
100
AcDbEntity
  8
Rechts
 62
7
100
AcDbLine
 10
106.070386
 20
52.295060
 30
0.0
 11
106.070386
 21
52.295060
 31
0.0
  0
LINE
  5
136
100
AcDbEntity
  8
Rechts
 62
7
100
AcDbLine
 10
99.708196
 20
51.445164
 30
0.0
 11
100.910436
 21
47.944810
 31
0.0
  0
LINE
  5
137
100
AcDbEntity
  8
Rechts
 62
7
100
AcDbLine
 10
100.910436
 20
47.944810
 30
0.0
 11
97.798932
 21
45.752663
 31
0.0
  0
SPLINE
  5
138
100
AcDbEntity
  8
Rechts
 62
7
100
AcDbSpline
 70
8
 71
3
 72
8
 73
4
 74
0
 40
0
 40
0
 40
0
 40
0
 40
1
 40
1
 40
1
 40
1
 10
97.798932
 20
45.752663
 30
0.0
 10
97.724245
 20
46.343940
 30
0.0
 10
97.687394
 20
46.904781
 30
0.0
 10
97.775145
 20
47.426340
 30
0.0
  0
LINE
  5
139
100
AcDbEntity
  8
Rechts
 62
7
100
AcDbLine
 10
97.775145
 20
47.426340
 30
0.0
 11
97.904079
 21
48.192833
 31
0.0
  0
LINE
  5
13a
100
AcDbEntity
  8
Rechts
 62
7
100
AcDbLine
 10
97.904079
 20
48.192833
 30
0.0
 11
98.118600
 21
48.916394
 31
0.0
  0
LINE
  5
13b
100
AcDbEntity
  8
Rechts
 62
7
100
AcDbLine
 10
98.118600
 20
48.916394
 30
0.0
 11
98.412562
 21
49.600303
 31
0.0
  0
LINE
  5
13c
100
AcDbEntity
  8
Rechts
 62
7
100
AcDbLine
 10
98.412562
 20
49.600303
 30
0.0
 11
98.779539
 21
50.247707
 31
0.0
  0
LINE
  5
13d
100
AcDbEntity
  8
Rechts
 62
7
100
AcDbLine
 10
98.779539
 20
50.247707
 30
0.0
 11
99.213650
 21
50.861612
 31
0.0
  0
LINE
  5
13e
100
AcDbEntity
  8
Rechts
 62
7
100
AcDbLine
 10
99.213650
 20
50.861612
 30
0.0
 11
99.708196
 21
51.445164
 31
0.0
  0
LINE
  5
13f
100
AcDbEntity
  8
Rechts
 62
7
100
AcDbLine
 10
99.708196
 20
51.445164
 30
0.0
 11
99.708196
 21
51.445164
 31
0.0
  0
LINE
  5
140
100
AcDbEntity
  8
Rechts
 62
7
100
AcDbLine
 10
100.289008
 20
51.178135
 30
0.0
 11
103.323668
 21
49.783244
 31
0.0
  0
LINE
  5
141
100
AcDbEntity
  8
Rechts
 62
7
100
AcDbLine
 10
103.323668
 20
49.783244
 30
0.0
 11
102.961066
 21
48.258189
 31
0.0
  0
LINE
  5
142
100
AcDbEntity
  8
Rechts
 62
7
100
AcDbLine
 10
102.961066
 20
48.258189
 30
0.0
 11
101.339073
 21
48.202951
 31
0.0
  0
LINE
  5
143
100
AcDbEntity
  8
Rechts
 62
7
100
AcDbLine
 10
101.339073
 20
48.202951
 30
0.0
 11
100.289008
 21
51.178135
 31
0.0
  0
LINE
  5
144
100
AcDbEntity
  8
Rechts
 62
7
100
AcDbLine
 10
100.289008
 20
51.178135
 30
0.0
 11
100.289008
 21
51.178135
 31
0.0
  0
LINE
  5
145
100
AcDbEntity
  8
Rechts
 62
7
100
AcDbLine
 10
130.227897
 20
50.570657
 30
0.0
 11
132.344569
 21
50.570657
 31
0.0
  0
LINE
  5
146
100
AcDbEntity
  8
Rechts
 62
7
100
AcDbLine
 10
132.344569
 20
50.570657
 30
0.0
 11
132.344569
 21
42.672882
 31
0.0
  0
LINE
  5
147
100
AcDbEntity
  8
Rechts
 62
7
100
AcDbLine
 10
132.344569
 20
42.672882
 30
0.0
 11
130.227897
 21
42.672882
 31
0.0
  0
LINE
  5
148
100
AcDbEntity
  8
Rechts
 62
7
100
AcDbLine
 10
130.227897
 20
42.672882
 30
0.0
 11
130.227897
 21
50.570657
 31
0.0
  0
LINE
  5
149
100
AcDbEntity
  8
Rechts
 62
7
100
AcDbLine
 10
130.227897
 20
50.570657
 30
0.0
 11
130.227897
 21
50.570657
 31
0.0
  0
LINE
  5
14a
100
AcDbEntity
  8
Rechts
 62
7
100
AcDbLine
 10
103.714166
 20
49.638450
 30
0.0
 11
104.675900
 21
48.033136
 31
0.0
  0
LINE
  5
14b
100
AcDbEntity
  8
Rechts
 62
7
100
AcDbLine
 10
104.675900
 20
48.033136
 30
0.0
 11
106.419309
 21
48.617372
 31
0.0
  0
LINE
  5
14c
100
AcDbEntity
  8
Rechts
 62
7
100
AcDbLine
 10
106.419309
 20
48.617372
 30
0.0
 11
105.509805
 21
46.981840
 31
0.0
  0
LINE
  5
14d
100
AcDbEntity
  8
Rechts
 62
7
100
AcDbLine
 10
105.509805
 20
46.981840
 30
0.0
 11
106.887463
 21
45.764147
 31
0.0
  0
LINE
  5
14e
100
AcDbEntity
  8
Rechts
 62
7
100
AcDbLine
 10
106.887463
 20
45.764147
 30
0.0
 11
105.016492
 21
45.734068
 31
0.0
  0
LINE
  5
14f
100
AcDbEntity
  8
Rechts
 62
7
100
AcDbLine
 10
105.016492
 20
45.734068
 30
0.0
 11
104.650607
 21
43.932003
 31
0.0
  0
LINE
  5
150
100
AcDbEntity
  8
Rechts
 62
7
100
AcDbLine
 10
104.650607
 20
43.932003
 30
0.0
 11
103.689006
 21
45.537317
 31
0.0
  0
LINE
  5
151
100
AcDbEntity
  8
Rechts
 62
7
100
AcDbLine
 10
103.689006
 20
45.537317
 30
0.0
 11
101.945597
 21
44.953219
 31
0.0
  0
LINE
  5
152
100
AcDbEntity
  8
Rechts
 62
7
100
AcDbLine
 10
101.945597
 20
44.953219
 30
0.0
 11
102.854968
 21
46.588613
 31
0.0
  0
LINE
  5
153
100
AcDbEntity
  8
Rechts
 62
7
100
AcDbLine
 10
102.854968
 20
46.588613
 30
0.0
 11
101.477303
 21
47.806442
 31
0.0
  0
LINE
  5
154
100
AcDbEntity
  8
Rechts
 62
7
100
AcDbLine
 10
101.477303
 20
47.806442
 30
0.0
 11
103.348421
 21
47.836522
 31
0.0
  0
LINE
  5
155
100
AcDbEntity
  8
Rechts
 62
7
100
AcDbLine
 10
103.348421
 20
47.836522
 30
0.0
 11
103.714166
 21
49.638450
 31
0.0
  0
LINE
  5
156
100
AcDbEntity
  8
Rechts
 62
7
100
AcDbLine
 10
103.714166
 20
49.638450
 30
0.0
 11
103.714166
 21
49.638450
 31
0.0
  0
LINE
  5
157
100
AcDbEntity
  8
Rechts
 62
7
100
AcDbLine
 10
106.885552
 20
48.513869
 30
0.0
 11
109.986254
 21
47.931137
 31
0.0
  0
LINE
  5
158
100
AcDbEntity
  8
Rechts
 62
7
100
AcDbLine
 10
109.986254
 20
47.931137
 30
0.0
 11
107.269210
 21
46.011761
 31
0.0
  0
LINE
  5
159
100
AcDbEntity
  8
Rechts
 62
7
100
AcDbLine
 10
107.269210
 20
46.011761
 30
0.0
 11
106.131367
 21
47.089855
 31
0.0
  0
LINE
  5
15a
100
AcDbEntity
  8
Rechts
 62
7
100
AcDbLine
 10
106.131367
 20
47.089855
 30
0.0
 11
106.885552
 21
48.513869
 31
0.0
  0
LINE
  5
15b
100
AcDbEntity
  8
Rechts
 62
7
100
AcDbLine
 10
106.885552
 20
48.513869
 30
0.0
 11
106.885552
 21
48.513869
 31
0.0
  0
SPLINE
  5
15c
100
AcDbEntity
  8
Rechts
 62
7
100
AcDbSpline
 70
8
 71
3
 72
8
 73
4
 74
0
 40
0
 40
0
 40
0
 40
0
 40
1
 40
1
 40
1
 40
1
 10
110.570216
 20
47.761596
 30
0.0
 10
110.644904
 20
47.170318
 30
0.0
 10
110.681754
 20
46.609478
 30
0.0
 10
110.594003
 20
46.087918
 30
0.0
  0
LINE
  5
15d
100
AcDbEntity
  8
Rechts
 62
7
100
AcDbLine
 10
110.594003
 20
46.087918
 30
0.0
 11
110.465069
 21
45.321562
 31
0.0
  0
LINE
  5
15e
100
AcDbEntity
  8
Rechts
 62
7
100
AcDbLine
 10
110.465069
 20
45.321562
 30
0.0
 11
110.250548
 21
44.597865
 31
0.0
  0
LINE
  5
15f
100
AcDbEntity
  8
Rechts
 62
7
100
AcDbLine
 10
110.250548
 20
44.597865
 30
0.0
 11
109.956579
 21
43.913955
 31
0.0
  0
LINE
  5
160
100
AcDbEntity
  8
Rechts
 62
7
100
AcDbLine
 10
109.956579
 20
43.913955
 30
0.0
 11
109.589469
 21
43.266552
 31
0.0
  0
LINE
  5
161
100
AcDbEntity
  8
Rechts
 62
7
100
AcDbLine
 10
109.589469
 20
43.266552
 30
0.0
 11
109.155498
 21
42.652646
 31
0.0
  0
LINE
  5
162
100
AcDbEntity
  8
Rechts
 62
7
100
AcDbLine
 10
109.155498
 20
42.652646
 30
0.0
 11
108.660820
 21
42.069094
 31
0.0
  0
LINE
  5
163
100
AcDbEntity
  8
Rechts
 62
7
100
AcDbLine
 10
108.660820
 20
42.069094
 30
0.0
 11
107.458712
 21
45.569448
 31
0.0
  0
LINE
  5
164
100
AcDbEntity
  8
Rechts
 62
7
100
AcDbLine
 10
107.458712
 20
45.569448
 30
0.0
 11
110.570216
 21
47.761596
 31
0.0
  0
LINE
  5
165
100
AcDbEntity
  8
Rechts
 62
7
100
AcDbLine
 10
110.570216
 20
47.761596
 30
0.0
 11
110.570216
 21
47.761596
 31
0.0
  0
LINE
  5
166
100
AcDbEntity
  8
Rechts
 62
7
100
AcDbLine
 10
101.156543
 20
47.555001
 30
0.0
 11
102.294387
 21
46.476770
 31
0.0
  0
LINE
  5
167
100
AcDbEntity
  8
Rechts
 62
7
100
AcDbLine
 10
102.294387
 20
46.476770
 30
0.0
 11
101.487153
 21
45.008456
 31
0.0
  0
LINE
  5
168
100
AcDbEntity
  8
Rechts
 62
7
100
AcDbLine
 10
101.487153
 20
45.008456
 30
0.0
 11
98.386451
 21
45.591324
 31
0.0
  0
LINE
  5
169
100
AcDbEntity
  8
Rechts
 62
7
100
AcDbLine
 10
98.386451
 20
45.591324
 30
0.0
 11
101.156543
 21
47.555001
 31
0.0
  0
LINE
  5
16a
100
AcDbEntity
  8
Rechts
 62
7
100
AcDbLine
 10
101.156543
 20
47.555001
 30
0.0
 11
101.156543
 21
47.555001
 31
0.0
  0
LINE
  5
16b
100
AcDbEntity
  8
Rechts
 62
7
100
AcDbLine
 10
107.033625
 20
45.319511
 30
0.0
 11
108.083690
 21
42.344326
 31
0.0
  0
LINE
  5
16c
100
AcDbEntity
  8
Rechts
 62
7
100
AcDbLine
 10
108.083690
 20
42.344326
 30
0.0
 11
105.022505
 21
43.747968
 31
0.0
  0
LINE
  5
16d
100
AcDbEntity
  8
Rechts
 62
7
100
AcDbLine
 10
105.022505
 20
43.747968
 30
0.0
 11
105.358582
 21
45.281911
 31
0.0
  0
LINE
  5
16e
100
AcDbEntity
  8
Rechts
 62
7
100
AcDbLine
 10
105.358582
 20
45.281911
 30
0.0
 11
107.033625
 21
45.319511
 31
0.0
  0
LINE
  5
16f
100
AcDbEntity
  8
Rechts
 62
7
100
AcDbLine
 10
107.033625
 20
45.319511
 30
0.0
 11
107.033625
 21
45.319511
 31
0.0
  0
LINE
  5
170
100
AcDbEntity
  8
Rechts
 62
7
100
AcDbLine
 10
97.894502
 20
45.225579
 30
0.0
 11
101.526663
 21
44.514597
 31
0.0
  0
LINE
  5
171
100
AcDbEntity
  8
Rechts
 62
7
100
AcDbLine
 10
101.526663
 20
44.514597
 30
0.0
 11
101.867389
 21
40.723699
 31
0.0
  0
SPLINE
  5
172
100
AcDbEntity
  8
Rechts
 62
7
100
AcDbSpline
 70
8
 71
3
 72
8
 73
4
 74
0
 40
0
 40
0
 40
0
 40
0
 40
1
 40
1
 40
1
 40
1
 10
101.867389
 20
40.723699
 30
0.0
 10
101.318106
 20
40.954945
 30
0.0
 10
100.813949
 20
41.203655
 30
0.0
 10
100.406321
 20
41.540644
 30
0.0
  0
LINE
  5
173
100
AcDbEntity
  8
Rechts
 62
7
100
AcDbLine
 10
100.406321
 20
41.540644
 30
0.0
 11
99.807322
 21
42.035870
 31
0.0
  0
LINE
  5
174
100
AcDbEntity
  8
Rechts
 62
7
100
AcDbLine
 10
99.807322
 20
42.035870
 30
0.0
 11
99.288303
 21
42.583736
 31
0.0
  0
LINE
  5
175
100
AcDbEntity
  8
Rechts
 62
7
100
AcDbLine
 10
99.288303
 20
42.583736
 30
0.0
 11
98.843257
 21
43.180550
 31
0.0
  0
LINE
  5
176
100
AcDbEntity
  8
Rechts
 62
7
100
AcDbLine
 10
98.843257
 20
43.180550
 30
0.0
 11
98.466438
 21
43.822347
 31
0.0
  0
LINE
  5
177
100
AcDbEntity
  8
Rechts
 62
7
100
AcDbLine
 10
98.466438
 20
43.822347
 30
0.0
 11
98.152097
 21
44.505300
 31
0.0
  0
LINE
  5
178
100
AcDbEntity
  8
Rechts
 62
7
100
AcDbLine
 10
98.152097
 20
44.505300
 30
0.0
 11
97.894502
 21
45.225579
 31
0.0
  0
LINE
  5
179
100
AcDbEntity
  8
Rechts
 62
7
100
AcDbLine
 10
97.894502
 20
45.225579
 30
0.0
 11
97.894502
 21
45.225579
 31
0.0
  0
LINE
  5
17a
100
AcDbEntity
  8
Rechts
 62
7
100
AcDbLine
 10
103.486925
 20
45.055354
 30
0.0
 11
104.355826
 21
43.622726
 31
0.0
  0
LINE
  5
17b
100
AcDbEntity
  8
Rechts
 62
7
100
AcDbLine
 10
104.355826
 20
43.622726
 30
0.0
 11
102.302318
 21
41.227401
 31
0.0
  0
LINE
  5
17c
100
AcDbEntity
  8
Rechts
 62
7
100
AcDbLine
 10
102.302318
 20
41.227401
 30
0.0
 11
101.984429
 21
44.607845
 31
0.0
  0
LINE
  5
17d
100
AcDbEntity
  8
Rechts
 62
7
100
AcDbLine
 10
101.984429
 20
44.607845
 30
0.0
 11
103.486925
 21
45.055354
 31
0.0
  0
LINE
  5
17e
100
AcDbEntity
  8
Rechts
 62
7
100
AcDbLine
 10
103.486925
 20
45.055354
 30
0.0
 11
103.486925
 21
45.055354
 31
0.0
  0
LINE
  5
17f
100
AcDbEntity
  8
Rechts
 62
7
100
AcDbLine
 10
104.768606
 20
43.341478
 30
0.0
 11
108.223292
 21
41.744094
 31
0.0
  0
SPLINE
  5
180
100
AcDbEntity
  8
Rechts
 62
7
100
AcDbSpline
 70
8
 71
3
 72
8
 73
4
 74
0
 40
0
 40
0
 40
0
 40
0
 40
1
 40
1
 40
1
 40
1
 10
108.223292
 20
41.744094
 30
0.0
 10
107.748691
 20
41.383620
 30
0.0
 10
107.281510
 20
41.071077
 30
0.0
 10
106.786012
 20
40.886130
 30
0.0
  0
LINE
  5
181
100
AcDbEntity
  8
Rechts
 62
7
100
AcDbLine
 10
106.786012
 20
40.886130
 30
0.0
 11
106.057939
 21
40.614317
 31
0.0
  0
LINE
  5
182
100
AcDbEntity
  8
Rechts
 62
7
100
AcDbLine
 10
106.057939
 20
40.614317
 30
0.0
 11
105.323993
 21
40.438075
 31
0.0
  0
LINE
  5
183
100
AcDbEntity
  8
Rechts
 62
7
100
AcDbLine
 10
105.323993
 20
40.438075
 30
0.0
 11
104.584705
 21
40.350433
 31
0.0
  0
LINE
  5
184
100
AcDbEntity
  8
Rechts
 62
7
100
AcDbLine
 10
104.584705
 20
40.350433
 30
0.0
 11
103.840636
 21
40.344417
 31
0.0
  0
LINE
  5
185
100
AcDbEntity
  8
Rechts
 62
7
100
AcDbLine
 10
103.840636
 20
40.344417
 30
0.0
 11
103.091918
 21
40.413054
 31
0.0
  0
LINE
  5
186
100
AcDbEntity
  8
Rechts
 62
7
100
AcDbLine
 10
103.091918
 20
40.413054
 30
0.0
 11
102.339099
 21
40.549372
 31
0.0
  0
LINE
  5
187
100
AcDbEntity
  8
Rechts
 62
7
100
AcDbLine
 10
102.339099
 20
40.549372
 30
0.0
 11
104.768606
 21
43.341478
 31
0.0
  0
LINE
  5
188
100
AcDbEntity
  8
Rechts
 62
7
100
AcDbLine
 10
104.768606
 20
43.341478
 30
0.0
 11
104.768606
 21
43.341478
 31
0.0
  0
LINE
  5
189
100
AcDbEntity
  8
Hinten
 62
7
100
AcDbLine
 10
72.522311
 20
38.655562
 30
0.0
 11
72.522311
 21
28.601326
 31
0.0
  0
LINE
  5
18a
100
AcDbEntity
  8
Hinten
 62
7
100
AcDbLine
 10
72.522311
 20
28.601326
 30
0.0
 11
74.638984
 21
28.601326
 31
0.0
  0
LINE
  5
18b
100
AcDbEntity
  8
Hinten
 62
7
100
AcDbLine
 10
74.638984
 20
28.601326
 30
0.0
 11
74.638984
 21
10.080530
 31
0.0
  0
LINE
  5
18c
100
AcDbEntity
  8
Hinten
 62
7
100
AcDbLine
 10
74.638984
 20
10.080530
 30
0.0
 11
72.522311
 21
10.080530
 31
0.0
  0
LINE
  5
18d
100
AcDbEntity
  8
Hinten
 62
7
100
AcDbLine
 10
72.522311
 20
10.080530
 30
0.0
 11
72.522311
 21
0.026430
 31
0.0
  0
LINE
  5
18e
100
AcDbEntity
  8
Hinten
 62
7
100
AcDbLine
 10
72.522311
 20
0.026430
 30
0.0
 11
83.105680
 21
0.026430
 31
0.0
  0
LINE
  5
18f
100
AcDbEntity
  8
Hinten
 62
7
100
AcDbLine
 10
83.105680
 20
0.026430
 30
0.0
 11
83.105680
 21
2.143102
 31
0.0
  0
LINE
  5
190
100
AcDbEntity
  8
Hinten
 62
7
100
AcDbLine
 10
83.105680
 20
2.143102
 30
0.0
 11
101.626476
 21
2.143102
 31
0.0
  0
LINE
  5
191
100
AcDbEntity
  8
Hinten
 62
7
100
AcDbLine
 10
101.626476
 20
2.143102
 30
0.0
 11
101.626476
 21
0.026430
 31
0.0
  0
LINE
  5
192
100
AcDbEntity
  8
Hinten
 62
7
100
AcDbLine
 10
101.626476
 20
0.026430
 30
0.0
 11
117.501465
 21
0.026430
 31
0.0
  0
LINE
  5
193
100
AcDbEntity
  8
Hinten
 62
7
100
AcDbLine
 10
117.501465
 20
0.026430
 30
0.0
 11
117.501465
 21
2.143102
 31
0.0
  0
LINE
  5
194
100
AcDbEntity
  8
Hinten
 62
7
100
AcDbLine
 10
117.501465
 20
2.143102
 30
0.0
 11
134.434856
 21
2.143102
 31
0.0
  0
LINE
  5
195
100
AcDbEntity
  8
Hinten
 62
7
100
AcDbLine
 10
134.434856
 20
2.143102
 30
0.0
 11
134.434856
 21
0.026430
 31
0.0
  0
LINE
  5
196
100
AcDbEntity
  8
Hinten
 62
7
100
AcDbLine
 10
134.434856
 20
0.026430
 30
0.0
 11
145.018091
 21
0.026430
 31
0.0
  0
LINE
  5
197
100
AcDbEntity
  8
Hinten
 62
7
100
AcDbLine
 10
145.018091
 20
0.026430
 30
0.0
 11
145.018091
 21
10.080530
 31
0.0
  0
LINE
  5
198
100
AcDbEntity
  8
Hinten
 62
7
100
AcDbLine
 10
145.018091
 20
10.080530
 30
0.0
 11
142.901419
 21
10.080530
 31
0.0
  0
LINE
  5
199
100
AcDbEntity
  8
Hinten
 62
7
100
AcDbLine
 10
142.901419
 20
10.080530
 30
0.0
 11
142.901419
 21
28.601326
 31
0.0
  0
LINE
  5
19a
100
AcDbEntity
  8
Hinten
 62
7
100
AcDbLine
 10
142.901419
 20
28.601326
 30
0.0
 11
145.018091
 21
28.601326
 31
0.0
  0
LINE
  5
19b
100
AcDbEntity
  8
Hinten
 62
7
100
AcDbLine
 10
145.018091
 20
28.601326
 30
0.0
 11
145.018091
 21
38.655562
 31
0.0
  0
LINE
  5
19c
100
AcDbEntity
  8
Hinten
 62
7
100
AcDbLine
 10
145.018091
 20
38.655562
 30
0.0
 11
134.434856
 21
38.655562
 31
0.0
  0
LINE
  5
19d
100
AcDbEntity
  8
Hinten
 62
7
100
AcDbLine
 10
134.434856
 20
38.655562
 30
0.0
 11
134.434856
 21
36.538888
 31
0.0
  0
LINE
  5
19e
100
AcDbEntity
  8
Hinten
 62
7
100
AcDbLine
 10
134.434856
 20
36.538888
 30
0.0
 11
117.501465
 21
36.538888
 31
0.0
  0
LINE
  5
19f
100
AcDbEntity
  8
Hinten
 62
7
100
AcDbLine
 10
117.501465
 20
36.538888
 30
0.0
 11
117.501465
 21
38.655562
 31
0.0
  0
LINE
  5
1a0
100
AcDbEntity
  8
Hinten
 62
7
100
AcDbLine
 10
117.501465
 20
38.655562
 30
0.0
 11
101.626476
 21
38.655562
 31
0.0
  0
LINE
  5
1a1
100
AcDbEntity
  8
Hinten
 62
7
100
AcDbLine
 10
101.626476
 20
38.655562
 30
0.0
 11
101.626476
 21
36.538888
 31
0.0
  0
LINE
  5
1a2
100
AcDbEntity
  8
Hinten
 62
7
100
AcDbLine
 10
101.626476
 20
36.538888
 30
0.0
 11
83.105680
 21
36.538888
 31
0.0
  0
LINE
  5
1a3
100
AcDbEntity
  8
Hinten
 62
7
100
AcDbLine
 10
83.105680
 20
36.538888
 30
0.0
 11
83.105680
 21
38.655562
 31
0.0
  0
LINE
  5
1a4
100
AcDbEntity
  8
Hinten
 62
7
100
AcDbLine
 10
83.105680
 20
38.655562
 30
0.0
 11
72.522311
 21
38.655562
 31
0.0
  0
LINE
  5
1a5
100
AcDbEntity
  8
Hinten
 62
7
100
AcDbLine
 10
130.201505
 20
28.601326
 30
0.0
 11
132.318184
 21
28.601326
 31
0.0
  0
LINE
  5
1a6
100
AcDbEntity
  8
Hinten
 62
7
100
AcDbLine
 10
132.318184
 20
28.601326
 30
0.0
 11
132.318184
 21
10.080530
 31
0.0
  0
LINE
  5
1a7
100
AcDbEntity
  8
Hinten
 62
7
100
AcDbLine
 10
132.318184
 20
10.080530
 30
0.0
 11
130.201505
 21
10.080530
 31
0.0
  0
LINE
  5
1a8
100
AcDbEntity
  8
Hinten
 62
7
100
AcDbLine
 10
130.201505
 20
10.080530
 30
0.0
 11
130.201505
 21
28.601326
 31
0.0
  0
LINE
  5
1a9
100
AcDbEntity
  8
Hinten
 62
7
100
AcDbLine
 10
132.118175
 20
35.070262
 30
0.0
 11
134.763982
 21
35.070262
 31
0.0
  0
LINE
  5
1aa
100
AcDbEntity
  8
Hinten
 62
7
100
AcDbLine
 10
134.763982
 20
35.070262
 30
0.0
 11
134.763982
 21
31.101481
 31
0.0
  0
LINE
  5
1ab
100
AcDbEntity
  8
Hinten
 62
7
100
AcDbLine
 10
134.763982
 20
31.101481
 30
0.0
 11
132.118175
 21
31.101481
 31
0.0
  0
LINE
  5
1ac
100
AcDbEntity
  8
Hinten
 62
7
100
AcDbLine
 10
132.118175
 20
31.101481
 30
0.0
 11
132.118175
 21
35.070262
 31
0.0
  0
LINE
  5
1ad
100
AcDbEntity
  8
Links
 62
7
100
AcDbLine
 10
10.609896
 20
56.647224
 30
0.0
 11
10.609896
 21
54.530687
 31
0.0
  0
LINE
  5
1ae
100
AcDbEntity
  8
Links
 62
7
100
AcDbLine
 10
10.609896
 20
54.530687
 30
0.0
 11
0.026525
 21
54.530687
 31
0.0
  0
LINE
  5
1af
100
AcDbEntity
  8
Links
 62
7
100
AcDbLine
 10
0.026525
 20
54.530687
 30
0.0
 11
0.026525
 21
50.561906
 31
0.0
  0
LINE
  5
1b0
100
AcDbEntity
  8
Links
 62
7
100
AcDbLine
 10
0.026525
 20
50.561906
 30
0.0
 11
2.143199
 21
50.561906
 31
0.0
  0
LINE
  5
1b1
100
AcDbEntity
  8
Links
 62
7
100
AcDbLine
 10
2.143199
 20
50.561906
 30
0.0
 11
2.143199
 21
42.624344
 31
0.0
  0
LINE
  5
1b2
100
AcDbEntity
  8
Links
 62
7
100
AcDbLine
 10
2.143199
 20
42.624344
 30
0.0
 11
0.026525
 21
42.624344
 31
0.0
  0
LINE
  5
1b3
100
AcDbEntity
  8
Links
 62
7
100
AcDbLine
 10
0.026525
 20
42.624344
 30
0.0
 11
0.026525
 21
38.655562
 31
0.0
  0
LINE
  5
1b4
100
AcDbEntity
  8
Links
 62
7
100
AcDbLine
 10
0.026525
 20
38.655562
 30
0.0
 11
10.609896
 21
38.655562
 31
0.0
  0
LINE
  5
1b5
100
AcDbEntity
  8
Links
 62
7
100
AcDbLine
 10
10.609896
 20
38.655562
 30
0.0
 11
10.609896
 21
36.539025
 31
0.0
  0
LINE
  5
1b6
100
AcDbEntity
  8
Links
 62
7
100
AcDbLine
 10
10.609896
 20
36.539025
 30
0.0
 11
29.130692
 21
36.539025
 31
0.0
  0
LINE
  5
1b7
100
AcDbEntity
  8
Links
 62
7
100
AcDbLine
 10
29.130692
 20
36.539025
 30
0.0
 11
29.130692
 21
38.655562
 31
0.0
  0
LINE
  5
1b8
100
AcDbEntity
  8
Links
 62
7
100
AcDbLine
 10
29.130692
 20
38.655562
 30
0.0
 11
45.005681
 21
38.655562
 31
0.0
  0
LINE
  5
1b9
100
AcDbEntity
  8
Links
 62
7
100
AcDbLine
 10
45.005681
 20
38.655562
 30
0.0
 11
45.005681
 21
36.539025
 31
0.0
  0
LINE
  5
1ba
100
AcDbEntity
  8
Links
 62
7
100
AcDbLine
 10
45.005681
 20
36.539025
 30
0.0
 11
61.939074
 21
36.539025
 31
0.0
  0
LINE
  5
1bb
100
AcDbEntity
  8
Links
 62
7
100
AcDbLine
 10
61.939074
 20
36.539025
 30
0.0
 11
61.939074
 21
38.655562
 31
0.0
  0
LINE
  5
1bc
100
AcDbEntity
  8
Links
 62
7
100
AcDbLine
 10
61.939074
 20
38.655562
 30
0.0
 11
72.522171
 21
38.655562
 31
0.0
  0
LINE
  5
1bd
100
AcDbEntity
  8
Links
 62
7
100
AcDbLine
 10
72.522171
 20
38.655562
 30
0.0
 11
72.522171
 21
42.600143
 31
0.0
  0
LINE
  5
1be
100
AcDbEntity
  8
Links
 62
7
100
AcDbLine
 10
72.522171
 20
42.600143
 30
0.0
 11
70.405632
 21
42.600143
 31
0.0
  0
LINE
  5
1bf
100
AcDbEntity
  8
Links
 62
7
100
AcDbLine
 10
70.405632
 20
42.600143
 30
0.0
 11
70.405632
 21
50.557531
 31
0.0
  0
LINE
  5
1c0
100
AcDbEntity
  8
Links
 62
7
100
AcDbLine
 10
70.405632
 20
50.557531
 30
0.0
 11
72.522171
 21
50.557531
 31
0.0
  0
LINE
  5
1c1
100
AcDbEntity
  8
Links
 62
7
100
AcDbLine
 10
72.522171
 20
50.557531
 30
0.0
 11
72.522171
 21
54.530687
 31
0.0
  0
LINE
  5
1c2
100
AcDbEntity
  8
Links
 62
7
100
AcDbLine
 10
72.522171
 20
54.530687
 30
0.0
 11
61.939074
 21
54.530687
 31
0.0
  0
LINE
  5
1c3
100
AcDbEntity
  8
Links
 62
7
100
AcDbLine
 10
61.939074
 20
54.530687
 30
0.0
 11
61.939074
 21
56.647224
 31
0.0
  0
LINE
  5
1c4
100
AcDbEntity
  8
Links
 62
7
100
AcDbLine
 10
61.939074
 20
56.647224
 30
0.0
 11
45.005681
 21
56.647224
 31
0.0
  0
LINE
  5
1c5
100
AcDbEntity
  8
Links
 62
7
100
AcDbLine
 10
45.005681
 20
56.647224
 30
0.0
 11
45.005681
 21
54.530687
 31
0.0
  0
LINE
  5
1c6
100
AcDbEntity
  8
Links
 62
7
100
AcDbLine
 10
45.005681
 20
54.530687
 30
0.0
 11
29.130692
 21
54.530687
 31
0.0
  0
LINE
  5
1c7
100
AcDbEntity
  8
Links
 62
7
100
AcDbLine
 10
29.130692
 20
54.530687
 30
0.0
 11
29.130692
 21
56.647224
 31
0.0
  0
LINE
  5
1c8
100
AcDbEntity
  8
Links
 62
7
100
AcDbLine
 10
29.130692
 20
56.647224
 30
0.0
 11
10.609896
 21
56.647224
 31
0.0
  0
LINE
  5
1c9
100
AcDbEntity
  8
Links
 62
7
100
AcDbLine
 10
10.609896
 20
56.647224
 30
0.0
 11
10.609896
 21
56.647224
 31
0.0
  0
LINE
  5
1ca
100
AcDbEntity
  8
Links
 62
7
100
AcDbLine
 10
32.116268
 20
53.169841
 30
0.0
 11
32.864986
 21
53.101204
 31
0.0
  0
LINE
  5
1cb
100
AcDbEntity
  8
Links
 62
7
100
AcDbLine
 10
32.864986
 20
53.101204
 30
0.0
 11
33.617670
 21
52.964887
 31
0.0
  0
LINE
  5
1cc
100
AcDbEntity
  8
Links
 62
7
100
AcDbLine
 10
33.617670
 20
52.964887
 30
0.0
 11
31.188300
 21
50.172780
 31
0.0
  0
LINE
  5
1cd
100
AcDbEntity
  8
Links
 62
7
100
AcDbLine
 10
31.188300
 20
50.172780
 30
0.0
 11
27.733477
 21
51.770164
 31
0.0
  0
SPLINE
  5
1ce
100
AcDbEntity
  8
Links
 62
7
100
AcDbSpline
 70
8
 71
3
 72
8
 73
4
 74
0
 40
0
 40
0
 40
0
 40
0
 40
1
 40
1
 40
1
 40
1
 10
27.733477
 20
51.770164
 30
0.0
 10
28.208076
 20
52.130638
 30
0.0
 10
28.675392
 20
52.443182
 30
0.0
 10
29.170890
 20
52.628128
 30
0.0
  0
LINE
  5
1cf
100
AcDbEntity
  8
Links
 62
7
100
AcDbLine
 10
29.170890
 20
52.628128
 30
0.0
 11
29.898963
 21
52.899942
 31
0.0
  0
LINE
  5
1d0
100
AcDbEntity
  8
Links
 62
7
100
AcDbLine
 10
29.898963
 20
52.899942
 30
0.0
 11
30.632915
 21
53.076183
 31
0.0
  0
LINE
  5
1d1
100
AcDbEntity
  8
Links
 62
7
100
AcDbLine
 10
30.632915
 20
53.076183
 30
0.0
 11
31.372062
 21
53.163825
 31
0.0
  0
LINE
  5
1d2
100
AcDbEntity
  8
Links
 62
7
100
AcDbLine
 10
31.372062
 20
53.163825
 30
0.0
 11
32.116268
 21
53.169841
 31
0.0
  0
LINE
  5
1d3
100
AcDbEntity
  8
Links
 62
7
100
AcDbLine
 10
32.116268
 20
53.169841
 30
0.0
 11
32.116268
 21
53.169841
 31
0.0
  0
SPLINE
  5
1d4
100
AcDbEntity
  8
Links
 62
7
100
AcDbSpline
 70
8
 71
3
 72
8
 73
4
 74
0
 40
0
 40
0
 40
0
 40
0
 40
1
 40
1
 40
1
 40
1
 10
34.089515
 20
52.790560
 30
0.0
 10
34.638796
 20
52.559312
 30
0.0
 10
35.142815
 20
52.310603
 30
0.0
 10
35.550446
 20
51.973614
 30
0.0
  0
LINE
  5
1d5
100
AcDbEntity
  8
Links
 62
7
100
AcDbLine
 10
35.550446
 20
51.973614
 30
0.0
 11
36.149448
 21
51.478389
 31
0.0
  0
LINE
  5
1d6
100
AcDbEntity
  8
Links
 62
7
100
AcDbLine
 10
36.149448
 20
51.478389
 30
0.0
 11
36.668601
 21
50.930522
 31
0.0
  0
LINE
  5
1d7
100
AcDbEntity
  8
Links
 62
7
100
AcDbLine
 10
36.668601
 20
50.930522
 30
0.0
 11
37.113648
 21
50.333708
 31
0.0
  0
LINE
  5
1d8
100
AcDbEntity
  8
Links
 62
7
100
AcDbLine
 10
37.113648
 20
50.333708
 30
0.0
 11
37.490468
 21
49.692048
 31
0.0
  0
LINE
  5
1d9
100
AcDbEntity
  8
Links
 62
7
100
AcDbLine
 10
37.490468
 20
49.692048
 30
0.0
 11
37.804667
 21
49.008958
 31
0.0
  0
LINE
  5
1da
100
AcDbEntity
  8
Links
 62
7
100
AcDbLine
 10
37.804667
 20
49.008958
 30
0.0
 11
38.062398
 21
48.288679
 31
0.0
  0
LINE
  5
1db
100
AcDbEntity
  8
Links
 62
7
100
AcDbLine
 10
38.062398
 20
48.288679
 30
0.0
 11
34.430240
 21
48.999798
 31
0.0
  0
LINE
  5
1dc
100
AcDbEntity
  8
Links
 62
7
100
AcDbLine
 10
34.430240
 20
48.999798
 30
0.0
 11
34.089515
 21
52.790560
 31
0.0
  0
LINE
  5
1dd
100
AcDbEntity
  8
Links
 62
7
100
AcDbLine
 10
34.089515
 20
52.790560
 30
0.0
 11
34.089515
 21
52.790560
 31
0.0
  0
LINE
  5
1de
100
AcDbEntity
  8
Links
 62
7
100
AcDbLine
 10
33.658141
 20
52.295060
 30
0.0
 11
33.976032
 21
48.994055
 31
0.0
  0
LINE
  5
1df
100
AcDbEntity
  8
Links
 62
7
100
AcDbLine
 10
33.976032
 20
48.994055
 30
0.0
 11
32.473537
 21
48.546683
 31
0.0
  0
LINE
  5
1e0
100
AcDbEntity
  8
Links
 62
7
100
AcDbLine
 10
32.473537
 20
48.546683
 30
0.0
 11
31.604635
 21
49.899736
 31
0.0
  0
LINE
  5
1e1
100
AcDbEntity
  8
Links
 62
7
100
AcDbLine
 10
31.604635
 20
49.899736
 30
0.0
 11
33.658141
 21
52.295060
 31
0.0
  0
LINE
  5
1e2
100
AcDbEntity
  8
Links
 62
7
100
AcDbLine
 10
33.658141
 20
52.295060
 30
0.0
 11
33.658141
 21
52.295060
 31
0.0
  0
LINE
  5
1e3
100
AcDbEntity
  8
Links
 62
7
100
AcDbLine
 10
27.295950
 20
51.445164
 30
0.0
 11
28.498193
 21
47.944810
 31
0.0
  0
LINE
  5
1e4
100
AcDbEntity
  8
Links
 62
7
100
AcDbLine
 10
28.498193
 20
47.944810
 30
0.0
 11
25.386691
 21
45.752663
 31
0.0
  0
SPLINE
  5
1e5
100
AcDbEntity
  8
Links
 62
7
100
AcDbSpline
 70
8
 71
3
 72
8
 73
4
 74
0
 40
0
 40
0
 40
0
 40
0
 40
1
 40
1
 40
1
 40
1
 10
25.386691
 20
45.752663
 30
0.0
 10
25.312002
 20
46.343940
 30
0.0
 10
25.275151
 20
46.904781
 30
0.0
 10
25.362900
 20
47.426340
 30
0.0
  0
LINE
  5
1e6
100
AcDbEntity
  8
Links
 62
7
100
AcDbLine
 10
25.362900
 20
47.426340
 30
0.0
 11
25.491834
 21
48.192833
 31
0.0
  0
LINE
  5
1e7
100
AcDbEntity
  8
Links
 62
7
100
AcDbLine
 10
25.491834
 20
48.192833
 30
0.0
 11
25.706359
 21
48.916394
 31
0.0
  0
LINE
  5
1e8
100
AcDbEntity
  8
Links
 62
7
100
AcDbLine
 10
25.706359
 20
48.916394
 30
0.0
 11
26.000323
 21
49.600303
 31
0.0
  0
LINE
  5
1e9
100
AcDbEntity
  8
Links
 62
7
100
AcDbLine
 10
26.000323
 20
49.600303
 30
0.0
 11
26.367298
 21
50.247707
 31
0.0
  0
LINE
  5
1ea
100
AcDbEntity
  8
Links
 62
7
100
AcDbLine
 10
26.367298
 20
50.247707
 30
0.0
 11
26.801408
 21
50.861612
 31
0.0
  0
LINE
  5
1eb
100
AcDbEntity
  8
Links
 62
7
100
AcDbLine
 10
26.801408
 20
50.861612
 30
0.0
 11
27.295950
 21
51.445164
 31
0.0
  0
LINE
  5
1ec
100
AcDbEntity
  8
Links
 62
7
100
AcDbLine
 10
27.295950
 20
51.445164
 30
0.0
 11
27.295950
 21
51.445164
 31
0.0
  0
LINE
  5
1ed
100
AcDbEntity
  8
Links
 62
7
100
AcDbLine
 10
27.876767
 20
51.178135
 30
0.0
 11
30.911428
 21
49.783244
 31
0.0
  0
LINE
  5
1ee
100
AcDbEntity
  8
Links
 62
7
100
AcDbLine
 10
30.911428
 20
49.783244
 30
0.0
 11
30.548828
 21
48.258189
 31
0.0
  0
LINE
  5
1ef
100
AcDbEntity
  8
Links
 62
7
100
AcDbLine
 10
30.548828
 20
48.258189
 30
0.0
 11
28.926832
 21
48.202951
 31
0.0
  0
LINE
  5
1f0
100
AcDbEntity
  8
Links
 62
7
100
AcDbLine
 10
28.926832
 20
48.202951
 30
0.0
 11
27.876767
 21
51.178135
 31
0.0
  0
LINE
  5
1f1
100
AcDbEntity
  8
Links
 62
7
100
AcDbLine
 10
27.876767
 20
51.178135
 30
0.0
 11
27.876767
 21
51.178135
 31
0.0
  0
LINE
  5
1f2
100
AcDbEntity
  8
Links
 62
7
100
AcDbLine
 10
57.705726
 20
50.566281
 30
0.0
 11
59.822399
 21
50.566281
 31
0.0
  0
LINE
  5
1f3
100
AcDbEntity
  8
Links
 62
7
100
AcDbLine
 10
59.822399
 20
50.566281
 30
0.0
 11
59.822399
 21
42.648681
 31
0.0
  0
LINE
  5
1f4
100
AcDbEntity
  8
Links
 62
7
100
AcDbLine
 10
59.822399
 20
42.648681
 30
0.0
 11
57.705726
 21
42.648681
 31
0.0
  0
LINE
  5
1f5
100
AcDbEntity
  8
Links
 62
7
100
AcDbLine
 10
57.705726
 20
42.648681
 30
0.0
 11
57.705726
 21
50.566281
 31
0.0
  0
LINE
  5
1f6
100
AcDbEntity
  8
Links
 62
7
100
AcDbLine
 10
57.705726
 20
50.566281
 30
0.0
 11
57.705726
 21
50.566281
 31
0.0
  0
LINE
  5
1f7
100
AcDbEntity
  8
Links
 62
7
100
AcDbLine
 10
31.301921
 20
49.638450
 30
0.0
 11
32.263660
 21
48.033136
 31
0.0
  0
LINE
  5
1f8
100
AcDbEntity
  8
Links
 62
7
100
AcDbLine
 10
32.263660
 20
48.033136
 30
0.0
 11
34.007069
 21
48.617372
 31
0.0
  0
LINE
  5
1f9
100
AcDbEntity
  8
Links
 62
7
100
AcDbLine
 10
34.007069
 20
48.617372
 30
0.0
 11
33.097560
 21
46.981840
 31
0.0
  0
LINE
  5
1fa
100
AcDbEntity
  8
Links
 62
7
100
AcDbLine
 10
33.097560
 20
46.981840
 30
0.0
 11
34.475223
 21
45.764147
 31
0.0
  0
LINE
  5
1fb
100
AcDbEntity
  8
Links
 62
7
100
AcDbLine
 10
34.475223
 20
45.764147
 30
0.0
 11
32.604247
 21
45.734068
 31
0.0
  0
LINE
  5
1fc
100
AcDbEntity
  8
Links
 62
7
100
AcDbLine
 10
32.604247
 20
45.734068
 30
0.0
 11
32.238365
 21
43.932003
 31
0.0
  0
LINE
  5
1fd
100
AcDbEntity
  8
Links
 62
7
100
AcDbLine
 10
32.238365
 20
43.932003
 30
0.0
 11
31.276763
 21
45.537317
 31
0.0
  0
LINE
  5
1fe
100
AcDbEntity
  8
Links
 62
7
100
AcDbLine
 10
31.276763
 20
45.537317
 30
0.0
 11
29.533354
 21
44.953219
 31
0.0
  0
LINE
  5
1ff
100
AcDbEntity
  8
Links
 62
7
100
AcDbLine
 10
29.533354
 20
44.953219
 30
0.0
 11
30.442727
 21
46.588613
 31
0.0
  0
LINE
  5
200
100
AcDbEntity
  8
Links
 62
7
100
AcDbLine
 10
30.442727
 20
46.588613
 30
0.0
 11
29.065063
 21
47.806442
 31
0.0
  0
LINE
  5
201
100
AcDbEntity
  8
Links
 62
7
100
AcDbLine
 10
29.065063
 20
47.806442
 30
0.0
 11
30.936176
 21
47.836522
 31
0.0
  0
LINE
  5
202
100
AcDbEntity
  8
Links
 62
7
100
AcDbLine
 10
30.936176
 20
47.836522
 30
0.0
 11
31.301921
 21
49.638450
 31
0.0
  0
LINE
  5
203
100
AcDbEntity
  8
Links
 62
7
100
AcDbLine
 10
31.301921
 20
49.638450
 30
0.0
 11
31.301921
 21
49.638450
 31
0.0
  0
LINE
  5
204
100
AcDbEntity
  8
Links
 62
7
100
AcDbLine
 10
34.473309
 20
48.513869
 30
0.0
 11
37.574009
 21
47.931137
 31
0.0
  0
LINE
  5
205
100
AcDbEntity
  8
Links
 62
7
100
AcDbLine
 10
37.574009
 20
47.931137
 30
0.0
 11
34.856965
 21
46.011761
 31
0.0
  0
LINE
  5
206
100
AcDbEntity
  8
Links
 62
7
100
AcDbLine
 10
34.856965
 20
46.011761
 30
0.0
 11
33.719122
 21
47.089855
 31
0.0
  0
LINE
  5
207
100
AcDbEntity
  8
Links
 62
7
100
AcDbLine
 10
33.719122
 20
47.089855
 30
0.0
 11
34.473309
 21
48.513869
 31
0.0
  0
LINE
  5
208
100
AcDbEntity
  8
Links
 62
7
100
AcDbLine
 10
34.473309
 20
48.513869
 30
0.0
 11
34.473309
 21
48.513869
 31
0.0
  0
SPLINE
  5
209
100
AcDbEntity
  8
Links
 62
7
100
AcDbSpline
 70
8
 71
3
 72
8
 73
4
 74
0
 40
0
 40
0
 40
0
 40
0
 40
1
 40
1
 40
1
 40
1
 10
38.157971
 20
47.761596
 30
0.0
 10
38.232663
 20
47.170318
 30
0.0
 10
38.269510
 20
46.609478
 30
0.0
 10
38.181761
 20
46.087918
 30
0.0
  0
LINE
  5
20a
100
AcDbEntity
  8
Links
 62
7
100
AcDbLine
 10
38.181761
 20
46.087918
 30
0.0
 11
38.052827
 21
45.321562
 31
0.0
  0
LINE
  5
20b
100
AcDbEntity
  8
Links
 62
7
100
AcDbLine
 10
38.052827
 20
45.321562
 30
0.0
 11
37.838302
 21
44.597865
 31
0.0
  0
LINE
  5
20c
100
AcDbEntity
  8
Links
 62
7
100
AcDbLine
 10
37.838302
 20
44.597865
 30
0.0
 11
37.544339
 21
43.913955
 31
0.0
  0
LINE
  5
20d
100
AcDbEntity
  8
Links
 62
7
100
AcDbLine
 10
37.544339
 20
43.913955
 30
0.0
 11
37.177226
 21
43.266552
 31
0.0
  0
LINE
  5
20e
100
AcDbEntity
  8
Links
 62
7
100
AcDbLine
 10
37.177226
 20
43.266552
 30
0.0
 11
36.743254
 21
42.652646
 31
0.0
  0
LINE
  5
20f
100
AcDbEntity
  8
Links
 62
7
100
AcDbLine
 10
36.743254
 20
42.652646
 30
0.0
 11
36.248575
 21
42.069094
 31
0.0
  0
LINE
  5
210
100
AcDbEntity
  8
Links
 62
7
100
AcDbLine
 10
36.248575
 20
42.069094
 30
0.0
 11
35.046469
 21
45.569448
 31
0.0
  0
LINE
  5
211
100
AcDbEntity
  8
Links
 62
7
100
AcDbLine
 10
35.046469
 20
45.569448
 30
0.0
 11
38.157971
 21
47.761596
 31
0.0
  0
LINE
  5
212
100
AcDbEntity
  8
Links
 62
7
100
AcDbLine
 10
38.157971
 20
47.761596
 30
0.0
 11
38.157971
 21
47.761596
 31
0.0
  0
LINE
  5
213
100
AcDbEntity
  8
Links
 62
7
100
AcDbLine
 10
28.744301
 20
47.555001
 30
0.0
 11
29.882145
 21
46.476770
 31
0.0
  0
LINE
  5
214
100
AcDbEntity
  8
Links
 62
7
100
AcDbLine
 10
29.882145
 20
46.476770
 30
0.0
 11
29.074908
 21
45.008456
 31
0.0
  0
LINE
  5
215
100
AcDbEntity
  8
Links
 62
7
100
AcDbLine
 10
29.074908
 20
45.008456
 30
0.0
 11
25.974208
 21
45.591324
 31
0.0
  0
LINE
  5
216
100
AcDbEntity
  8
Links
 62
7
100
AcDbLine
 10
25.974208
 20
45.591324
 30
0.0
 11
28.744301
 21
47.555001
 31
0.0
  0
LINE
  5
217
100
AcDbEntity
  8
Links
 62
7
100
AcDbLine
 10
28.744301
 20
47.555001
 30
0.0
 11
28.744301
 21
47.555001
 31
0.0
  0
LINE
  5
218
100
AcDbEntity
  8
Links
 62
7
100
AcDbLine
 10
34.621385
 20
45.319511
 30
0.0
 11
35.671450
 21
42.344326
 31
0.0
  0
LINE
  5
219
100
AcDbEntity
  8
Links
 62
7
100
AcDbLine
 10
35.671450
 20
42.344326
 30
0.0
 11
32.610264
 21
43.747968
 31
0.0
  0
LINE
  5
21a
100
AcDbEntity
  8
Links
 62
7
100
AcDbLine
 10
32.610264
 20
43.747968
 30
0.0
 11
32.946339
 21
45.281911
 31
0.0
  0
LINE
  5
21b
100
AcDbEntity
  8
Links
 62
7
100
AcDbLine
 10
32.946339
 20
45.281911
 30
0.0
 11
34.621385
 21
45.319511
 31
0.0
  0
LINE
  5
21c
100
AcDbEntity
  8
Links
 62
7
100
AcDbLine
 10
34.621385
 20
45.319511
 30
0.0
 11
34.621385
 21
45.319511
 31
0.0
  0
LINE
  5
21d
100
AcDbEntity
  8
Links
 62
7
100
AcDbLine
 10
25.482263
 20
45.225579
 30
0.0
 11
29.114422
 21
44.514597
 31
0.0
  0
LINE
  5
21e
100
AcDbEntity
  8
Links
 62
7
100
AcDbLine
 10
29.114422
 20
44.514597
 30
0.0
 11
29.455146
 21
40.723699
 31
0.0
  0
SPLINE
  5
21f
100
AcDbEntity
  8
Links
 62
7
100
AcDbSpline
 70
8
 71
3
 72
8
 73
4
 74
0
 40
0
 40
0
 40
0
 40
0
 40
1
 40
1
 40
1
 40
1
 10
29.455146
 20
40.723699
 30
0.0
 10
28.905866
 20
40.954947
 30
0.0
 10
28.401709
 20
41.203655
 30
0.0
 10
27.994079
 20
41.540644
 30
0.0
  0
LINE
  5
220
100
AcDbEntity
  8
Links
 62
7
100
AcDbLine
 10
27.994079
 20
41.540644
 30
0.0
 11
27.395077
 21
42.035870
 31
0.0
  0
LINE
  5
221
100
AcDbEntity
  8
Links
 62
7
100
AcDbLine
 10
27.395077
 20
42.035870
 30
0.0
 11
26.876060
 21
42.583736
 31
0.0
  0
LINE
  5
222
100
AcDbEntity
  8
Links
 62
7
100
AcDbLine
 10
26.876060
 20
42.583736
 30
0.0
 11
26.431013
 21
43.180550
 31
0.0
  0
LINE
  5
223
100
AcDbEntity
  8
Links
 62
7
100
AcDbLine
 10
26.431013
 20
43.180550
 30
0.0
 11
26.054193
 21
43.822347
 31
0.0
  0
LINE
  5
224
100
AcDbEntity
  8
Links
 62
7
100
AcDbLine
 10
26.054193
 20
43.822347
 30
0.0
 11
25.739857
 21
44.505300
 31
0.0
  0
LINE
  5
225
100
AcDbEntity
  8
Links
 62
7
100
AcDbLine
 10
25.739857
 20
44.505300
 30
0.0
 11
25.482263
 21
45.225579
 31
0.0
  0
LINE
  5
226
100
AcDbEntity
  8
Links
 62
7
100
AcDbLine
 10
25.482263
 20
45.225579
 30
0.0
 11
25.482263
 21
45.225579
 31
0.0
  0
LINE
  5
227
100
AcDbEntity
  8
Links
 62
7
100
AcDbLine
 10
31.074680
 20
45.055354
 30
0.0
 11
31.943581
 21
43.622726
 31
0.0
  0
LINE
  5
228
100
AcDbEntity
  8
Links
 62
7
100
AcDbLine
 10
31.943581
 20
43.622726
 30
0.0
 11
29.890076
 21
41.227401
 31
0.0
  0
LINE
  5
229
100
AcDbEntity
  8
Links
 62
7
100
AcDbLine
 10
29.890076
 20
41.227401
 30
0.0
 11
29.572184
 21
44.607845
 31
0.0
  0
LINE
  5
22a
100
AcDbEntity
  8
Links
 62
7
100
AcDbLine
 10
29.572184
 20
44.607845
 30
0.0
 11
31.074680
 21
45.055354
 31
0.0
  0
LINE
  5
22b
100
AcDbEntity
  8
Links
 62
7
100
AcDbLine
 10
31.074680
 20
45.055354
 30
0.0
 11
31.074680
 21
45.055354
 31
0.0
  0
LINE
  5
22c
100
AcDbEntity
  8
Links
 62
7
100
AcDbLine
 10
32.356361
 20
43.341478
 30
0.0
 11
35.811048
 21
41.744094
 31
0.0
  0
SPLINE
  5
22d
100
AcDbEntity
  8
Links
 62
7
100
AcDbSpline
 70
8
 71
3
 72
8
 73
4
 74
0
 40
0
 40
0
 40
0
 40
0
 40
1
 40
1
 40
1
 40
1
 10
35.811048
 20
41.744094
 30
0.0
 10
35.336449
 20
41.383620
 30
0.0
 10
34.869270
 20
41.071077
 30
0.0
 10
34.373772
 20
40.886130
 30
0.0
  0
LINE
  5
22e
100
AcDbEntity
  8
Links
 62
7
100
AcDbLine
 10
34.373772
 20
40.886130
 30
0.0
 11
33.645699
 21
40.614317
 31
0.0
  0
LINE
  5
22f
100
AcDbEntity
  8
Links
 62
7
100
AcDbLine
 10
33.645699
 20
40.614317
 30
0.0
 11
32.911747
 21
40.438075
 31
0.0
  0
LINE
  5
230
100
AcDbEntity
  8
Links
 62
7
100
AcDbLine
 10
32.911747
 20
40.438075
 30
0.0
 11
32.172463
 21
40.350433
 31
0.0
  0
LINE
  5
231
100
AcDbEntity
  8
Links
 62
7
100
AcDbLine
 10
32.172463
 20
40.350433
 30
0.0
 11
31.428394
 21
40.344417
 31
0.0
  0
LINE
  5
232
100
AcDbEntity
  8
Links
 62
7
100
AcDbLine
 10
31.428394
 20
40.344417
 30
0.0
 11
30.679675
 21
40.413054
 31
0.0
  0
LINE
  5
233
100
AcDbEntity
  8
Links
 62
7
100
AcDbLine
 10
30.679675
 20
40.413054
 30
0.0
 11
29.926855
 21
40.549372
 31
0.0
  0
LINE
  5
234
100
AcDbEntity
  8
Links
 62
7
100
AcDbLine
 10
29.926855
 20
40.549372
 30
0.0
 11
32.356361
 21
43.341478
 31
0.0
  0
LINE
  5
235
100
AcDbEntity
  8
Links
 62
7
100
AcDbLine
 10
32.356361
 20
43.341478
 30
0.0
 11
32.356361
 21
43.341478
 31
0.0
  0
LINE
  5
236
100
AcDbEntity
  8
Vorne
 62
7
100
AcDbLine
 10
0.026458
 20
38.655642
 30
0.0
 11
0.026458
 21
28.601406
 31
0.0
  0
LINE
  5
237
100
AcDbEntity
  8
Vorne
 62
7
100
AcDbLine
 10
0.026458
 20
28.601406
 30
0.0
 11
2.143133
 21
28.601406
 31
0.0
  0
LINE
  5
238
100
AcDbEntity
  8
Vorne
 62
7
100
AcDbLine
 10
2.143133
 20
28.601406
 30
0.0
 11
2.143133
 21
10.080609
 31
0.0
  0
LINE
  5
239
100
AcDbEntity
  8
Vorne
 62
7
100
AcDbLine
 10
2.143133
 20
10.080609
 30
0.0
 11
0.026458
 21
10.080609
 31
0.0
  0
LINE
  5
23a
100
AcDbEntity
  8
Vorne
 62
7
100
AcDbLine
 10
0.026458
 20
10.080609
 30
0.0
 11
0.026458
 21
0.026510
 31
0.0
  0
LINE
  5
23b
100
AcDbEntity
  8
Vorne
 62
7
100
AcDbLine
 10
0.026458
 20
0.026510
 30
0.0
 11
10.609829
 21
0.026510
 31
0.0
  0
LINE
  5
23c
100
AcDbEntity
  8
Vorne
 62
7
100
AcDbLine
 10
10.609829
 20
0.026510
 30
0.0
 11
10.609829
 21
2.143183
 31
0.0
  0
LINE
  5
23d
100
AcDbEntity
  8
Vorne
 62
7
100
AcDbLine
 10
10.609829
 20
2.143183
 30
0.0
 11
29.130626
 21
2.143183
 31
0.0
  0
LINE
  5
23e
100
AcDbEntity
  8
Vorne
 62
7
100
AcDbLine
 10
29.130626
 20
2.143183
 30
0.0
 11
29.130626
 21
0.026510
 31
0.0
  0
LINE
  5
23f
100
AcDbEntity
  8
Vorne
 62
7
100
AcDbLine
 10
29.130626
 20
0.026510
 30
0.0
 11
45.005614
 21
0.026510
 31
0.0
  0
LINE
  5
240
100
AcDbEntity
  8
Vorne
 62
7
100
AcDbLine
 10
45.005614
 20
0.026510
 30
0.0
 11
45.005614
 21
2.143183
 31
0.0
  0
LINE
  5
241
100
AcDbEntity
  8
Vorne
 62
7
100
AcDbLine
 10
45.005614
 20
2.143183
 30
0.0
 11
61.939007
 21
2.143183
 31
0.0
  0
LINE
  5
242
100
AcDbEntity
  8
Vorne
 62
7
100
AcDbLine
 10
61.939007
 20
2.143183
 30
0.0
 11
61.939007
 21
0.026510
 31
0.0
  0
LINE
  5
243
100
AcDbEntity
  8
Vorne
 62
7
100
AcDbLine
 10
61.939007
 20
0.026510
 30
0.0
 11
72.522238
 21
0.026510
 31
0.0
  0
LINE
  5
244
100
AcDbEntity
  8
Vorne
 62
7
100
AcDbLine
 10
72.522238
 20
0.026510
 30
0.0
 11
72.522238
 21
10.080609
 31
0.0
  0
LINE
  5
245
100
AcDbEntity
  8
Vorne
 62
7
100
AcDbLine
 10
72.522238
 20
10.080609
 30
0.0
 11
70.405566
 21
10.080609
 31
0.0
  0
LINE
  5
246
100
AcDbEntity
  8
Vorne
 62
7
100
AcDbLine
 10
70.405566
 20
10.080609
 30
0.0
 11
70.405566
 21
28.601406
 31
0.0
  0
LINE
  5
247
100
AcDbEntity
  8
Vorne
 62
7
100
AcDbLine
 10
70.405566
 20
28.601406
 30
0.0
 11
72.522238
 21
28.601406
 31
0.0
  0
LINE
  5
248
100
AcDbEntity
  8
Vorne
 62
7
100
AcDbLine
 10
72.522238
 20
28.601406
 30
0.0
 11
72.522238
 21
38.655642
 31
0.0
  0
LINE
  5
249
100
AcDbEntity
  8
Vorne
 62
7
100
AcDbLine
 10
72.522238
 20
38.655642
 30
0.0
 11
61.939007
 21
38.655642
 31
0.0
  0
LINE
  5
24a
100
AcDbEntity
  8
Vorne
 62
7
100
AcDbLine
 10
61.939007
 20
38.655642
 30
0.0
 11
61.939007
 21
36.538968
 31
0.0
  0
LINE
  5
24b
100
AcDbEntity
  8
Vorne
 62
7
100
AcDbLine
 10
61.939007
 20
36.538968
 30
0.0
 11
45.005614
 21
36.538968
 31
0.0
  0
LINE
  5
24c
100
AcDbEntity
  8
Vorne
 62
7
100
AcDbLine
 10
45.005614
 20
36.538968
 30
0.0
 11
45.005614
 21
38.655642
 31
0.0
  0
LINE
  5
24d
100
AcDbEntity
  8
Vorne
 62
7
100
AcDbLine
 10
45.005614
 20
38.655642
 30
0.0
 11
29.130626
 21
38.655642
 31
0.0
  0
LINE
  5
24e
100
AcDbEntity
  8
Vorne
 62
7
100
AcDbLine
 10
29.130626
 20
38.655642
 30
0.0
 11
29.130626
 21
36.538968
 31
0.0
  0
LINE
  5
24f
100
AcDbEntity
  8
Vorne
 62
7
100
AcDbLine
 10
29.130626
 20
36.538968
 30
0.0
 11
10.609829
 21
36.538968
 31
0.0
  0
LINE
  5
250
100
AcDbEntity
  8
Vorne
 62
7
100
AcDbLine
 10
10.609829
 20
36.538968
 30
0.0
 11
10.609829
 21
38.655642
 31
0.0
  0
LINE
  5
251
100
AcDbEntity
  8
Vorne
 62
7
100
AcDbLine
 10
10.609829
 20
38.655642
 30
0.0
 11
0.026458
 21
38.655642
 31
0.0
  0
LINE
  5
252
100
AcDbEntity
  8
Vorne
 62
7
100
AcDbLine
 10
57.705659
 20
28.601406
 30
0.0
 11
59.822333
 21
28.601406
 31
0.0
  0
LINE
  5
253
100
AcDbEntity
  8
Vorne
 62
7
100
AcDbLine
 10
59.822333
 20
28.601406
 30
0.0
 11
59.822333
 21
10.080609
 31
0.0
  0
LINE
  5
254
100
AcDbEntity
  8
Vorne
 62
7
100
AcDbLine
 10
59.822333
 20
10.080609
 30
0.0
 11
57.705659
 21
10.080609
 31
0.0
  0
LINE
  5
255
100
AcDbEntity
  8
Vorne
 62
7
100
AcDbLine
 10
57.705659
 20
10.080609
 30
0.0
 11
57.705659
 21
28.601406
 31
0.0
  0
LINE
  5
256
100
AcDbEntity
  8
Unten
 62
7
100
AcDbLine
 10
39.211250
 20
70.670172
 30
0.0
 11
37.094575
 21
70.670172
 31
0.0
  0
LINE
  5
257
100
AcDbEntity
  8
Unten
 62
7
100
AcDbLine
 10
37.094575
 20
70.670172
 30
0.0
 11
37.094575
 21
74.638953
 31
0.0
  0
LINE
  5
258
100
AcDbEntity
  8
Unten
 62
7
100
AcDbLine
 10
37.094575
 20
74.638953
 30
0.0
 11
29.130625
 21
74.638953
 31
0.0
  0
LINE
  5
259
100
AcDbEntity
  8
Unten
 62
7
100
AcDbLine
 10
29.130625
 20
74.638953
 30
0.0
 11
29.130625
 21
76.755628
 31
0.0
  0
LINE
  5
25a
100
AcDbEntity
  8
Unten
 62
7
100
AcDbLine
 10
29.130625
 20
76.755628
 30
0.0
 11
10.609692
 21
76.755628
 31
0.0
  0
LINE
  5
25b
100
AcDbEntity
  8
Unten
 62
7
100
AcDbLine
 10
10.609692
 20
76.755628
 30
0.0
 11
10.609692
 21
74.638953
 31
0.0
  0
LINE
  5
25c
100
AcDbEntity
  8
Unten
 62
7
100
AcDbLine
 10
10.609692
 20
74.638953
 30
0.0
 11
2.672266
 21
74.638953
 31
0.0
  0
LINE
  5
25d
100
AcDbEntity
  8
Unten
 62
7
100
AcDbLine
 10
2.672266
 20
74.638953
 30
0.0
 11
2.672266
 21
70.670172
 31
0.0
  0
LINE
  5
25e
100
AcDbEntity
  8
Unten
 62
7
100
AcDbLine
 10
2.672266
 20
70.670172
 30
0.0
 11
0.555592
 21
70.670172
 31
0.0
  0
LINE
  5
25f
100
AcDbEntity
  8
Unten
 62
7
100
AcDbLine
 10
0.555592
 20
70.670172
 30
0.0
 11
0.555592
 21
62.732746
 31
0.0
  0
LINE
  5
260
100
AcDbEntity
  8
Unten
 62
7
100
AcDbLine
 10
0.555592
 20
62.732746
 30
0.0
 11
2.672266
 21
62.732746
 31
0.0
  0
LINE
  5
261
100
AcDbEntity
  8
Unten
 62
7
100
AcDbLine
 10
2.672266
 20
62.732746
 30
0.0
 11
2.672266
 21
58.763965
 31
0.0
  0
LINE
  5
262
100
AcDbEntity
  8
Unten
 62
7
100
AcDbLine
 10
2.672266
 20
58.763965
 30
0.0
 11
10.609692
 21
58.763965
 31
0.0
  0
LINE
  5
263
100
AcDbEntity
  8
Unten
 62
7
100
AcDbLine
 10
10.609692
 20
58.763965
 30
0.0
 11
10.609692
 21
56.647291
 31
0.0
  0
LINE
  5
264
100
AcDbEntity
  8
Unten
 62
7
100
AcDbLine
 10
10.609692
 20
56.647291
 30
0.0
 11
29.130625
 21
56.647291
 31
0.0
  0
LINE
  5
265
100
AcDbEntity
  8
Unten
 62
7
100
AcDbLine
 10
29.130625
 20
56.647291
 30
0.0
 11
29.130625
 21
58.763965
 31
0.0
  0
LINE
  5
266
100
AcDbEntity
  8
Unten
 62
7
100
AcDbLine
 10
29.130625
 20
58.763965
 30
0.0
 11
37.094575
 21
58.763965
 31
0.0
  0
LINE
  5
267
100
AcDbEntity
  8
Unten
 62
7
100
AcDbLine
 10
37.094575
 20
58.763965
 30
0.0
 11
37.094575
 21
62.732746
 31
0.0
  0
LINE
  5
268
100
AcDbEntity
  8
Unten
 62
7
100
AcDbLine
 10
37.094575
 20
62.732746
 30
0.0
 11
39.211250
 21
62.732746
 31
0.0
  0
LINE
  5
269
100
AcDbEntity
  8
Unten
 62
7
100
AcDbLine
 10
39.211250
 20
62.732746
 30
0.0
 11
39.211250
 21
70.670172
 31
0.0
  0
LINE
  5
26a
100
AcDbEntity
  8
Mitte
 62
7
100
AcDbLine
 10
49.265417
 20
76.755561
 30
0.0
 11
49.265417
 21
74.638887
 31
0.0
  0
LINE
  5
26b
100
AcDbEntity
  8
Mitte
 62
7
100
AcDbLine
 10
49.265417
 20
74.638887
 30
0.0
 11
41.327991
 21
74.638887
 31
0.0
  0
LINE
  5
26c
100
AcDbEntity
  8
Mitte
 62
7
100
AcDbLine
 10
41.327991
 20
74.638887
 30
0.0
 11
41.327991
 21
70.670106
 31
0.0
  0
LINE
  5
26d
100
AcDbEntity
  8
Mitte
 62
7
100
AcDbLine
 10
41.327991
 20
70.670106
 30
0.0
 11
39.211317
 21
70.670106
 31
0.0
  0
LINE
  5
26e
100
AcDbEntity
  8
Mitte
 62
7
100
AcDbLine
 10
39.211317
 20
70.670106
 30
0.0
 11
39.211317
 21
62.732680
 31
0.0
  0
LINE
  5
26f
100
AcDbEntity
  8
Mitte
 62
7
100
AcDbLine
 10
39.211317
 20
62.732680
 30
0.0
 11
41.327991
 21
62.732680
 31
0.0
  0
LINE
  5
270
100
AcDbEntity
  8
Mitte
 62
7
100
AcDbLine
 10
41.327991
 20
62.732680
 30
0.0
 11
41.327991
 21
58.763899
 31
0.0
  0
LINE
  5
271
100
AcDbEntity
  8
Mitte
 62
7
100
AcDbLine
 10
41.327991
 20
58.763899
 30
0.0
 11
48.365752
 21
58.763899
 31
0.0
  0
LINE
  5
272
100
AcDbEntity
  8
Mitte
 62
7
100
AcDbLine
 10
48.365752
 20
58.763899
 30
0.0
 11
48.365752
 21
59.203203
 31
0.0
  0
LINE
  5
273
100
AcDbEntity
  8
Mitte
 62
7
100
AcDbLine
 10
48.365752
 20
59.203203
 30
0.0
 11
49.265417
 21
59.203203
 31
0.0
  0
LINE
  5
274
100
AcDbEntity
  8
Mitte
 62
7
100
AcDbLine
 10
49.265417
 20
59.203203
 30
0.0
 11
49.265417
 21
58.763899
 31
0.0
  0
LINE
  5
275
100
AcDbEntity
  8
Mitte
 62
7
100
AcDbLine
 10
49.265417
 20
58.763899
 30
0.0
 11
49.265417
 21
56.647224
 31
0.0
  0
LINE
  5
276
100
AcDbEntity
  8
Mitte
 62
7
100
AcDbLine
 10
49.265417
 20
56.647224
 30
0.0
 11
67.786351
 21
56.647224
 31
0.0
  0
LINE
  5
277
100
AcDbEntity
  8
Mitte
 62
7
100
AcDbLine
 10
67.786351
 20
56.647224
 30
0.0
 11
67.786351
 21
58.763899
 31
0.0
  0
LINE
  5
278
100
AcDbEntity
  8
Mitte
 62
7
100
AcDbLine
 10
67.786351
 20
58.763899
 30
0.0
 11
67.786351
 21
59.203203
 31
0.0
  0
LINE
  5
279
100
AcDbEntity
  8
Mitte
 62
7
100
AcDbLine
 10
67.786351
 20
59.203203
 30
0.0
 11
68.685879
 21
59.203203
 31
0.0
  0
LINE
  5
27a
100
AcDbEntity
  8
Mitte
 62
7
100
AcDbLine
 10
68.685879
 20
59.203203
 30
0.0
 11
68.685879
 21
58.763899
 31
0.0
  0
LINE
  5
27b
100
AcDbEntity
  8
Mitte
 62
7
100
AcDbLine
 10
68.685879
 20
58.763899
 30
0.0
 11
75.750303
 21
58.763899
 31
0.0
  0
LINE
  5
27c
100
AcDbEntity
  8
Mitte
 62
7
100
AcDbLine
 10
75.750303
 20
58.763899
 30
0.0
 11
75.750303
 21
62.732680
 31
0.0
  0
LINE
  5
27d
100
AcDbEntity
  8
Mitte
 62
7
100
AcDbLine
 10
75.750303
 20
62.732680
 30
0.0
 11
77.866975
 21
62.732680
 31
0.0
  0
LINE
  5
27e
100
AcDbEntity
  8
Mitte
 62
7
100
AcDbLine
 10
77.866975
 20
62.732680
 30
0.0
 11
77.866975
 21
70.670106
 31
0.0
  0
LINE
  5
27f
100
AcDbEntity
  8
Mitte
 62
7
100
AcDbLine
 10
77.866975
 20
70.670106
 30
0.0
 11
75.750303
 21
70.670106
 31
0.0
  0
LINE
  5
280
100
AcDbEntity
  8
Mitte
 62
7
100
AcDbLine
 10
75.750303
 20
70.670106
 30
0.0
 11
75.750303
 21
74.638887
 31
0.0
  0
LINE
  5
281
100
AcDbEntity
  8
Mitte
 62
7
100
AcDbLine
 10
75.750303
 20
74.638887
 30
0.0
 11
67.786351
 21
74.638887
 31
0.0
  0
LINE
  5
282
100
AcDbEntity
  8
Mitte
 62
7
100
AcDbLine
 10
67.786351
 20
74.638887
 30
0.0
 11
67.786351
 21
76.755561
 31
0.0
  0
LINE
  5
283
100
AcDbEntity
  8
Mitte
 62
7
100
AcDbLine
 10
67.786351
 20
76.755561
 30
0.0
 11
49.265417
 21
76.755561
 31
0.0
  0
LINE
  5
284
100
AcDbEntity
  8
Mitte
 62
7
100
AcDbLine
 10
49.265417
 20
76.755561
 30
0.0
 11
49.265417
 21
76.755561
 31
0.0
  0
LINE
  5
285
100
AcDbEntity
  8
Oben
 62
7
100
AcDbLine
 10
87.921075
 20
76.755561
 30
0.0
 11
87.921075
 21
74.638887
 31
0.0
  0
LINE
  5
286
100
AcDbEntity
  8
Oben
 62
7
100
AcDbLine
 10
87.921075
 20
74.638887
 30
0.0
 11
83.846738
 21
74.638887
 31
0.0
  0
LINE
  5
287
100
AcDbEntity
  8
Oben
 62
7
100
AcDbLine
 10
83.846738
 20
74.638887
 30
0.0
 11
83.846738
 21
73.548487
 31
0.0
  0
LINE
  5
288
100
AcDbEntity
  8
Oben
 62
7
100
AcDbLine
 10
83.846738
 20
73.548487
 30
0.0
 11
83.863147
 21
73.537412
 31
0.0
  0
LINE
  5
289
100
AcDbEntity
  8
Oben
 62
7
100
AcDbLine
 10
83.863147
 20
73.537412
 30
0.0
 11
84.195535
 21
73.044374
 31
0.0
  0
LINE
  5
28a
100
AcDbEntity
  8
Oben
 62
7
100
AcDbLine
 10
84.195535
 20
73.044374
 30
0.0
 11
84.317490
 21
72.440450
 31
0.0
  0
LINE
  5
28b
100
AcDbEntity
  8
Oben
 62
7
100
AcDbLine
 10
84.317490
 20
72.440450
 30
0.0
 11
84.195535
 21
71.836526
 31
0.0
  0
LINE
  5
28c
100
AcDbEntity
  8
Oben
 62
7
100
AcDbLine
 10
84.195535
 20
71.836526
 30
0.0
 11
83.863147
 21
71.343350
 31
0.0
  0
LINE
  5
28d
100
AcDbEntity
  8
Oben
 62
7
100
AcDbLine
 10
83.863147
 20
71.343350
 30
0.0
 11
83.369974
 21
71.010967
 31
0.0
  0
LINE
  5
28e
100
AcDbEntity
  8
Oben
 62
7
100
AcDbLine
 10
83.369974
 20
71.010967
 30
0.0
 11
82.766046
 21
70.889006
 31
0.0
  0
LINE
  5
28f
100
AcDbEntity
  8
Oben
 62
7
100
AcDbLine
 10
82.766046
 20
70.889006
 30
0.0
 11
82.162259
 21
71.010967
 31
0.0
  0
LINE
  5
290
100
AcDbEntity
  8
Oben
 62
7
100
AcDbLine
 10
82.162259
 20
71.010967
 30
0.0
 11
81.669085
 21
71.343350
 31
0.0
  0
LINE
  5
291
100
AcDbEntity
  8
Oben
 62
7
100
AcDbLine
 10
81.669085
 20
71.343350
 30
0.0
 11
81.336565
 21
71.836526
 31
0.0
  0
LINE
  5
292
100
AcDbEntity
  8
Oben
 62
7
100
AcDbLine
 10
81.336565
 20
71.836526
 30
0.0
 11
81.214603
 21
72.440450
 31
0.0
  0
LINE
  5
293
100
AcDbEntity
  8
Oben
 62
7
100
AcDbLine
 10
81.214603
 20
72.440450
 30
0.0
 11
81.336565
 21
73.044374
 31
0.0
  0
LINE
  5
294
100
AcDbEntity
  8
Oben
 62
7
100
AcDbLine
 10
81.336565
 20
73.044374
 30
0.0
 11
81.669085
 21
73.537412
 31
0.0
  0
LINE
  5
295
100
AcDbEntity
  8
Oben
 62
7
100
AcDbLine
 10
81.669085
 20
73.537412
 30
0.0
 11
81.730066
 21
73.578567
 31
0.0
  0
LINE
  5
296
100
AcDbEntity
  8
Oben
 62
7
100
AcDbLine
 10
81.730066
 20
73.578567
 30
0.0
 11
81.730066
 21
74.638887
 31
0.0
  0
LINE
  5
297
100
AcDbEntity
  8
Oben
 62
7
100
AcDbLine
 10
81.730066
 20
74.638887
 30
0.0
 11
79.983647
 21
74.638887
 31
0.0
  0
LINE
  5
298
100
AcDbEntity
  8
Oben
 62
7
100
AcDbLine
 10
79.983647
 20
74.638887
 30
0.0
 11
79.983647
 21
70.670106
 31
0.0
  0
LINE
  5
299
100
AcDbEntity
  8
Oben
 62
7
100
AcDbLine
 10
79.983647
 20
70.670106
 30
0.0
 11
77.866975
 21
70.670106
 31
0.0
  0
LINE
  5
29a
100
AcDbEntity
  8
Oben
 62
7
100
AcDbLine
 10
77.866975
 20
70.670106
 30
0.0
 11
77.866975
 21
62.732680
 31
0.0
  0
LINE
  5
29b
100
AcDbEntity
  8
Oben
 62
7
100
AcDbLine
 10
77.866975
 20
62.732680
 30
0.0
 11
79.983647
 21
62.732680
 31
0.0
  0
LINE
  5
29c
100
AcDbEntity
  8
Oben
 62
7
100
AcDbLine
 10
79.983647
 20
62.732680
 30
0.0
 11
79.983647
 21
58.763899
 31
0.0
  0
LINE
  5
29d
100
AcDbEntity
  8
Oben
 62
7
100
AcDbLine
 10
79.983647
 20
58.763899
 30
0.0
 11
87.921075
 21
58.763899
 31
0.0
  0
LINE
  5
29e
100
AcDbEntity
  8
Oben
 62
7
100
AcDbLine
 10
87.921075
 20
58.763899
 30
0.0
 11
87.921075
 21
56.647224
 31
0.0
  0
LINE
  5
29f
100
AcDbEntity
  8
Oben
 62
7
100
AcDbLine
 10
87.921075
 20
56.647224
 30
0.0
 11
106.442011
 21
56.647224
 31
0.0
  0
LINE
  5
2a0
100
AcDbEntity
  8
Oben
 62
7
100
AcDbLine
 10
106.442011
 20
56.647224
 30
0.0
 11
106.442011
 21
58.763899
 31
0.0
  0
LINE
  5
2a1
100
AcDbEntity
  8
Oben
 62
7
100
AcDbLine
 10
106.442011
 20
58.763899
 30
0.0
 11
114.405957
 21
58.763899
 31
0.0
  0
LINE
  5
2a2
100
AcDbEntity
  8
Oben
 62
7
100
AcDbLine
 10
114.405957
 20
58.763899
 30
0.0
 11
114.405957
 21
62.732680
 31
0.0
  0
LINE
  5
2a3
100
AcDbEntity
  8
Oben
 62
7
100
AcDbLine
 10
114.405957
 20
62.732680
 30
0.0
 11
116.522636
 21
62.732680
 31
0.0
  0
LINE
  5
2a4
100
AcDbEntity
  8
Oben
 62
7
100
AcDbLine
 10
116.522636
 20
62.732680
 30
0.0
 11
116.522636
 21
70.670106
 31
0.0
  0
LINE
  5
2a5
100
AcDbEntity
  8
Oben
 62
7
100
AcDbLine
 10
116.522636
 20
70.670106
 30
0.0
 11
114.405957
 21
70.670106
 31
0.0
  0
LINE
  5
2a6
100
AcDbEntity
  8
Oben
 62
7
100
AcDbLine
 10
114.405957
 20
70.670106
 30
0.0
 11
114.405957
 21
74.638887
 31
0.0
  0
LINE
  5
2a7
100
AcDbEntity
  8
Oben
 62
7
100
AcDbLine
 10
114.405957
 20
74.638887
 30
0.0
 11
106.442011
 21
74.638887
 31
0.0
  0
LINE
  5
2a8
100
AcDbEntity
  8
Oben
 62
7
100
AcDbLine
 10
106.442011
 20
74.638887
 30
0.0
 11
106.442011
 21
76.755561
 31
0.0
  0
LINE
  5
2a9
100
AcDbEntity
  8
Oben
 62
7
100
AcDbLine
 10
106.442011
 20
76.755561
 30
0.0
 11
87.921075
 21
76.755561
 31
0.0
  0
LINE
  5
2aa
100
AcDbEntity
  8
Oben
 62
7
100
AcDbLine
 10
87.921075
 20
76.755561
 30
0.0
 11
87.921075
 21
76.755561
 31
0.0
  0
LINE
  5
2ab
100
AcDbEntity
  8
Oben
 62
7
100
AcDbLine
 10
89.236940
 20
75.990709
 30
0.0
 11
89.545939
 21
75.862732
 31
0.0
  0
LINE
  5
2ac
100
AcDbEntity
  8
Oben
 62
7
100
AcDbLine
 10
89.545939
 20
75.862732
 30
0.0
 11
89.673921
 21
75.553592
 31
0.0
  0
LINE
  5
2ad
100
AcDbEntity
  8
Oben
 62
7
100
AcDbLine
 10
89.673921
 20
75.553592
 30
0.0
 11
89.545939
 21
75.244588
 31
0.0
  0
LINE
  5
2ae
100
AcDbEntity
  8
Oben
 62
7
100
AcDbLine
 10
89.545939
 20
75.244588
 30
0.0
 11
89.236940
 21
75.116612
 31
0.0
  0
LINE
  5
2af
100
AcDbEntity
  8
Oben
 62
7
100
AcDbLine
 10
89.236940
 20
75.116612
 30
0.0
 11
88.927800
 21
75.244588
 31
0.0
  0
LINE
  5
2b0
100
AcDbEntity
  8
Oben
 62
7
100
AcDbLine
 10
88.927800
 20
75.244588
 30
0.0
 11
88.799818
 21
75.553592
 31
0.0
  0
LINE
  5
2b1
100
AcDbEntity
  8
Oben
 62
7
100
AcDbLine
 10
88.799818
 20
75.553592
 30
0.0
 11
88.927800
 21
75.862732
 31
0.0
  0
LINE
  5
2b2
100
AcDbEntity
  8
Oben
 62
7
100
AcDbLine
 10
88.927800
 20
75.862732
 30
0.0
 11
89.236940
 21
75.990709
 31
0.0
  0
LINE
  5
2b3
100
AcDbEntity
  8
Oben
 62
7
100
AcDbLine
 10
89.236940
 20
75.990709
 30
0.0
 11
89.236940
 21
75.990709
 31
0.0
  0
LINE
  5
2b4
100
AcDbEntity
  8
Oben
 62
7
100
AcDbLine
 10
105.126553
 20
75.990709
 30
0.0
 11
105.435699
 21
75.862732
 31
0.0
  0
LINE
  5
2b5
100
AcDbEntity
  8
Oben
 62
7
100
AcDbLine
 10
105.435699
 20
75.862732
 30
0.0
 11
105.563674
 21
75.553592
 31
0.0
  0
LINE
  5
2b6
100
AcDbEntity
  8
Oben
 62
7
100
AcDbLine
 10
105.563674
 20
75.553592
 30
0.0
 11
105.435699
 21
75.244588
 31
0.0
  0
LINE
  5
2b7
100
AcDbEntity
  8
Oben
 62
7
100
AcDbLine
 10
105.435699
 20
75.244588
 30
0.0
 11
105.126553
 21
75.116612
 31
0.0
  0
LINE
  5
2b8
100
AcDbEntity
  8
Oben
 62
7
100
AcDbLine
 10
105.126553
 20
75.116612
 30
0.0
 11
104.817553
 21
75.244588
 31
0.0
  0
LINE
  5
2b9
100
AcDbEntity
  8
Oben
 62
7
100
AcDbLine
 10
104.817553
 20
75.244588
 30
0.0
 11
104.689578
 21
75.553592
 31
0.0
  0
LINE
  5
2ba
100
AcDbEntity
  8
Oben
 62
7
100
AcDbLine
 10
104.689578
 20
75.553592
 30
0.0
 11
104.817553
 21
75.862732
 31
0.0
  0
LINE
  5
2bb
100
AcDbEntity
  8
Oben
 62
7
100
AcDbLine
 10
104.817553
 20
75.862732
 30
0.0
 11
105.126553
 21
75.990709
 31
0.0
  0
LINE
  5
2bc
100
AcDbEntity
  8
Oben
 62
7
100
AcDbLine
 10
105.126553
 20
75.990709
 30
0.0
 11
105.126553
 21
75.990709
 31
0.0
  0
LINE
  5
2bd
100
AcDbEntity
  8
Oben
 62
7
100
AcDbLine
 10
111.355028
 20
70.661218
 30
0.0
 11
111.759464
 21
70.579592
 31
0.0
  0
LINE
  5
2be
100
AcDbEntity
  8
Oben
 62
7
100
AcDbLine
 10
111.759464
 20
70.579592
 30
0.0
 11
112.089527
 21
70.357000
 31
0.0
  0
LINE
  5
2bf
100
AcDbEntity
  8
Oben
 62
7
100
AcDbLine
 10
112.089527
 20
70.357000
 30
0.0
 11
112.312120
 21
70.026804
 31
0.0
  0
LINE
  5
2c0
100
AcDbEntity
  8
Oben
 62
7
100
AcDbLine
 10
112.312120
 20
70.026804
 30
0.0
 11
112.393745
 21
69.622501
 31
0.0
  0
LINE
  5
2c1
100
AcDbEntity
  8
Oben
 62
7
100
AcDbLine
 10
112.393745
 20
69.622501
 30
0.0
 11
112.312120
 21
69.218199
 31
0.0
  0
LINE
  5
2c2
100
AcDbEntity
  8
Oben
 62
7
100
AcDbLine
 10
112.312120
 20
69.218199
 30
0.0
 11
112.089527
 21
68.888003
 31
0.0
  0
LINE
  5
2c3
100
AcDbEntity
  8
Oben
 62
7
100
AcDbLine
 10
112.089527
 20
68.888003
 30
0.0
 11
111.759464
 21
68.665411
 31
0.0
  0
LINE
  5
2c4
100
AcDbEntity
  8
Oben
 62
7
100
AcDbLine
 10
111.759464
 20
68.665411
 30
0.0
 11
111.355028
 21
68.583785
 31
0.0
  0
LINE
  5
2c5
100
AcDbEntity
  8
Oben
 62
7
100
AcDbLine
 10
111.355028
 20
68.583785
 30
0.0
 11
110.950725
 21
68.665411
 31
0.0
  0
LINE
  5
2c6
100
AcDbEntity
  8
Oben
 62
7
100
AcDbLine
 10
110.950725
 20
68.665411
 30
0.0
 11
110.620668
 21
68.888003
 31
0.0
  0
LINE
  5
2c7
100
AcDbEntity
  8
Oben
 62
7
100
AcDbLine
 10
110.620668
 20
68.888003
 30
0.0
 11
110.398075
 21
69.218199
 31
0.0
  0
LINE
  5
2c8
100
AcDbEntity
  8
Oben
 62
7
100
AcDbLine
 10
110.398075
 20
69.218199
 30
0.0
 11
110.316450
 21
69.622501
 31
0.0
  0
LINE
  5
2c9
100
AcDbEntity
  8
Oben
 62
7
100
AcDbLine
 10
110.316450
 20
69.622501
 30
0.0
 11
110.398075
 21
70.026804
 31
0.0
  0
LINE
  5
2ca
100
AcDbEntity
  8
Oben
 62
7
100
AcDbLine
 10
110.398075
 20
70.026804
 30
0.0
 11
110.620668
 21
70.357000
 31
0.0
  0
LINE
  5
2cb
100
AcDbEntity
  8
Oben
 62
7
100
AcDbLine
 10
110.620668
 20
70.357000
 30
0.0
 11
110.950725
 21
70.579592
 31
0.0
  0
LINE
  5
2cc
100
AcDbEntity
  8
Oben
 62
7
100
AcDbLine
 10
110.950725
 20
70.579592
 30
0.0
 11
111.355028
 21
70.661218
 31
0.0
  0
LINE
  5
2cd
100
AcDbEntity
  8
Oben
 62
7
100
AcDbLine
 10
111.355028
 20
70.661218
 30
0.0
 11
111.355028
 21
70.661218
 31
0.0
  0
LINE
  5
2ce
100
AcDbEntity
  8
Oben
 62
7
100
AcDbLine
 10
97.140591
 20
68.205597
 30
0.0
 11
97.746296
 21
68.083363
 31
0.0
  0
LINE
  5
2cf
100
AcDbEntity
  8
Oben
 62
7
100
AcDbLine
 10
97.746296
 20
68.083363
 30
0.0
 11
98.240835
 21
67.749885
 31
0.0
  0
LINE
  5
2d0
100
AcDbEntity
  8
Oben
 62
7
100
AcDbLine
 10
98.240835
 20
67.749885
 30
0.0
 11
98.574314
 21
67.255343
 31
0.0
  0
LINE
  5
2d1
100
AcDbEntity
  8
Oben
 62
7
100
AcDbLine
 10
98.574314
 20
67.255343
 30
0.0
 11
98.696682
 21
66.649642
 31
0.0
  0
LINE
  5
2d2
100
AcDbEntity
  8
Oben
 62
7
100
AcDbLine
 10
98.696682
 20
66.649642
 30
0.0
 11
98.574314
 21
66.043940
 31
0.0
  0
LINE
  5
2d3
100
AcDbEntity
  8
Oben
 62
7
100
AcDbLine
 10
98.574314
 20
66.043940
 30
0.0
 11
98.240835
 21
65.549398
 31
0.0
  0
LINE
  5
2d4
100
AcDbEntity
  8
Oben
 62
7
100
AcDbLine
 10
98.240835
 20
65.549398
 30
0.0
 11
97.746296
 21
65.215920
 31
0.0
  0
LINE
  5
2d5
100
AcDbEntity
  8
Oben
 62
7
100
AcDbLine
 10
97.746296
 20
65.215920
 30
0.0
 11
97.140591
 21
65.093549
 31
0.0
  0
LINE
  5
2d6
100
AcDbEntity
  8
Oben
 62
7
100
AcDbLine
 10
97.140591
 20
65.093549
 30
0.0
 11
96.534892
 21
65.215920
 31
0.0
  0
LINE
  5
2d7
100
AcDbEntity
  8
Oben
 62
7
100
AcDbLine
 10
96.534892
 20
65.215920
 30
0.0
 11
96.040346
 21
65.549398
 31
0.0
  0
LINE
  5
2d8
100
AcDbEntity
  8
Oben
 62
7
100
AcDbLine
 10
96.040346
 20
65.549398
 30
0.0
 11
95.706867
 21
66.043940
 31
0.0
  0
LINE
  5
2d9
100
AcDbEntity
  8
Oben
 62
7
100
AcDbLine
 10
95.706867
 20
66.043940
 30
0.0
 11
95.584639
 21
66.649642
 31
0.0
  0
LINE
  5
2da
100
AcDbEntity
  8
Oben
 62
7
100
AcDbLine
 10
95.584639
 20
66.649642
 30
0.0
 11
95.706867
 21
67.255343
 31
0.0
  0
LINE
  5
2db
100
AcDbEntity
  8
Oben
 62
7
100
AcDbLine
 10
95.706867
 20
67.255343
 30
0.0
 11
96.040346
 21
67.749885
 31
0.0
  0
LINE
  5
2dc
100
AcDbEntity
  8
Oben
 62
7
100
AcDbLine
 10
96.040346
 20
67.749885
 30
0.0
 11
96.534892
 21
68.083363
 31
0.0
  0
LINE
  5
2dd
100
AcDbEntity
  8
Oben
 62
7
100
AcDbLine
 10
96.534892
 20
68.083363
 30
0.0
 11
97.140591
 21
68.205597
 31
0.0
  0
LINE
  5
2de
100
AcDbEntity
  8
Oben
 62
7
100
AcDbLine
 10
97.140591
 20
68.205597
 30
0.0
 11
97.140591
 21
68.205597
 31
0.0
  0
LINE
  5
2df
100
AcDbEntity
  8
Oben
 62
7
100
AcDbLine
 10
111.355028
 20
67.790220
 30
0.0
 11
111.759464
 21
67.708594
 31
0.0
  0
LINE
  5
2e0
100
AcDbEntity
  8
Oben
 62
7
100
AcDbLine
 10
111.759464
 20
67.708594
 30
0.0
 11
112.089527
 21
67.486002
 31
0.0
  0
LINE
  5
2e1
100
AcDbEntity
  8
Oben
 62
7
100
AcDbLine
 10
112.089527
 20
67.486002
 30
0.0
 11
112.312120
 21
67.155805
 31
0.0
  0
LINE
  5
2e2
100
AcDbEntity
  8
Oben
 62
7
100
AcDbLine
 10
112.312120
 20
67.155805
 30
0.0
 11
112.393745
 21
66.751503
 31
0.0
  0
LINE
  5
2e3
100
AcDbEntity
  8
Oben
 62
7
100
AcDbLine
 10
112.393745
 20
66.751503
 30
0.0
 11
112.312120
 21
66.347201
 31
0.0
  0
LINE
  5
2e4
100
AcDbEntity
  8
Oben
 62
7
100
AcDbLine
 10
112.312120
 20
66.347201
 30
0.0
 11
112.089527
 21
66.017005
 31
0.0
  0
LINE
  5
2e5
100
AcDbEntity
  8
Oben
 62
7
100
AcDbLine
 10
112.089527
 20
66.017005
 30
0.0
 11
111.759464
 21
65.794413
 31
0.0
  0
LINE
  5
2e6
100
AcDbEntity
  8
Oben
 62
7
100
AcDbLine
 10
111.759464
 20
65.794413
 30
0.0
 11
111.355028
 21
65.712786
 31
0.0
  0
LINE
  5
2e7
100
AcDbEntity
  8
Oben
 62
7
100
AcDbLine
 10
111.355028
 20
65.712786
 30
0.0
 11
110.950725
 21
65.794413
 31
0.0
  0
LINE
  5
2e8
100
AcDbEntity
  8
Oben
 62
7
100
AcDbLine
 10
110.950725
 20
65.794413
 30
0.0
 11
110.620668
 21
66.017005
 31
0.0
  0
LINE
  5
2e9
100
AcDbEntity
  8
Oben
 62
7
100
AcDbLine
 10
110.620668
 20
66.017005
 30
0.0
 11
110.398075
 21
66.347201
 31
0.0
  0
LINE
  5
2ea
100
AcDbEntity
  8
Oben
 62
7
100
AcDbLine
 10
110.398075
 20
66.347201
 30
0.0
 11
110.316450
 21
66.751503
 31
0.0
  0
LINE
  5
2eb
100
AcDbEntity
  8
Oben
 62
7
100
AcDbLine
 10
110.316450
 20
66.751503
 30
0.0
 11
110.398075
 21
67.155805
 31
0.0
  0
LINE
  5
2ec
100
AcDbEntity
  8
Oben
 62
7
100
AcDbLine
 10
110.398075
 20
67.155805
 30
0.0
 11
110.620668
 21
67.486002
 31
0.0
  0
LINE
  5
2ed
100
AcDbEntity
  8
Oben
 62
7
100
AcDbLine
 10
110.620668
 20
67.486002
 30
0.0
 11
110.950725
 21
67.708594
 31
0.0
  0
LINE
  5
2ee
100
AcDbEntity
  8
Oben
 62
7
100
AcDbLine
 10
110.950725
 20
67.708594
 30
0.0
 11
111.355028
 21
67.790220
 31
0.0
  0
LINE
  5
2ef
100
AcDbEntity
  8
Oben
 62
7
100
AcDbLine
 10
111.355028
 20
67.790220
 30
0.0
 11
111.355028
 21
67.790220
 31
0.0
  0
LINE
  5
2f0
100
AcDbEntity
  8
Oben
 62
7
100
AcDbLine
 10
78.894890
 20
67.130101
 30
0.0
 11
79.204030
 21
67.002124
 31
0.0
  0
LINE
  5
2f1
100
AcDbEntity
  8
Oben
 62
7
100
AcDbLine
 10
79.204030
 20
67.002124
 30
0.0
 11
79.332005
 21
66.692984
 31
0.0
  0
LINE
  5
2f2
100
AcDbEntity
  8
Oben
 62
7
100
AcDbLine
 10
79.332005
 20
66.692984
 30
0.0
 11
79.204030
 21
66.383980
 31
0.0
  0
LINE
  5
2f3
100
AcDbEntity
  8
Oben
 62
7
100
AcDbLine
 10
79.204030
 20
66.383980
 30
0.0
 11
78.894890
 21
66.256004
 31
0.0
  0
LINE
  5
2f4
100
AcDbEntity
  8
Oben
 62
7
100
AcDbLine
 10
78.894890
 20
66.256004
 30
0.0
 11
78.585884
 21
66.383980
 31
0.0
  0
LINE
  5
2f5
100
AcDbEntity
  8
Oben
 62
7
100
AcDbLine
 10
78.585884
 20
66.383980
 30
0.0
 11
78.457909
 21
66.692984
 31
0.0
  0
LINE
  5
2f6
100
AcDbEntity
  8
Oben
 62
7
100
AcDbLine
 10
78.457909
 20
66.692984
 30
0.0
 11
78.585884
 21
67.002124
 31
0.0
  0
LINE
  5
2f7
100
AcDbEntity
  8
Oben
 62
7
100
AcDbLine
 10
78.585884
 20
67.002124
 30
0.0
 11
78.894890
 21
67.130101
 31
0.0
  0
LINE
  5
2f8
100
AcDbEntity
  8
Oben
 62
7
100
AcDbLine
 10
78.894890
 20
67.130101
 30
0.0
 11
78.894890
 21
67.130101
 31
0.0
  0
LINE
  5
2f9
100
AcDbEntity
  8
Oben
 62
7
100
AcDbLine
 10
115.472158
 20
67.130101
 30
0.0
 11
115.781297
 21
67.002124
 31
0.0
  0
LINE
  5
2fa
100
AcDbEntity
  8
Oben
 62
7
100
AcDbLine
 10
115.781297
 20
67.002124
 30
0.0
 11
115.909272
 21
66.692984
 31
0.0
  0
LINE
  5
2fb
100
AcDbEntity
  8
Oben
 62
7
100
AcDbLine
 10
115.909272
 20
66.692984
 30
0.0
 11
115.781297
 21
66.383980
 31
0.0
  0
LINE
  5
2fc
100
AcDbEntity
  8
Oben
 62
7
100
AcDbLine
 10
115.781297
 20
66.383980
 30
0.0
 11
115.472158
 21
66.256004
 31
0.0
  0
LINE
  5
2fd
100
AcDbEntity
  8
Oben
 62
7
100
AcDbLine
 10
115.472158
 20
66.256004
 30
0.0
 11
115.163152
 21
66.383980
 31
0.0
  0
LINE
  5
2fe
100
AcDbEntity
  8
Oben
 62
7
100
AcDbLine
 10
115.163152
 20
66.383980
 30
0.0
 11
115.035177
 21
66.692984
 31
0.0
  0
LINE
  5
2ff
100
AcDbEntity
  8
Oben
 62
7
100
AcDbLine
 10
115.035177
 20
66.692984
 30
0.0
 11
115.163152
 21
67.002124
 31
0.0
  0
LINE
  5
300
100
AcDbEntity
  8
Oben
 62
7
100
AcDbLine
 10
115.163152
 20
67.002124
 30
0.0
 11
115.472158
 21
67.130101
 31
0.0
  0
LINE
  5
301
100
AcDbEntity
  8
Oben
 62
7
100
AcDbLine
 10
115.472158
 20
67.130101
 30
0.0
 11
115.472158
 21
67.130101
 31
0.0
  0
LINE
  5
302
100
AcDbEntity
  8
Oben
 62
7
100
AcDbLine
 10
111.355028
 20
64.919222
 30
0.0
 11
111.759464
 21
64.837596
 31
0.0
  0
LINE
  5
303
100
AcDbEntity
  8
Oben
 62
7
100
AcDbLine
 10
111.759464
 20
64.837596
 30
0.0
 11
112.089527
 21
64.614867
 31
0.0
  0
LINE
  5
304
100
AcDbEntity
  8
Oben
 62
7
100
AcDbLine
 10
112.089527
 20
64.614867
 30
0.0
 11
112.312120
 21
64.284808
 31
0.0
  0
LINE
  5
305
100
AcDbEntity
  8
Oben
 62
7
100
AcDbLine
 10
112.312120
 20
64.284808
 30
0.0
 11
112.393745
 21
63.880505
 31
0.0
  0
LINE
  5
306
100
AcDbEntity
  8
Oben
 62
7
100
AcDbLine
 10
112.393745
 20
63.880505
 30
0.0
 11
112.312120
 21
63.476202
 31
0.0
  0
LINE
  5
307
100
AcDbEntity
  8
Oben
 62
7
100
AcDbLine
 10
112.312120
 20
63.476202
 30
0.0
 11
112.089527
 21
63.146007
 31
0.0
  0
LINE
  5
308
100
AcDbEntity
  8
Oben
 62
7
100
AcDbLine
 10
112.089527
 20
63.146007
 30
0.0
 11
111.759464
 21
62.923414
 31
0.0
  0
LINE
  5
309
100
AcDbEntity
  8
Oben
 62
7
100
AcDbLine
 10
111.759464
 20
62.923414
 30
0.0
 11
111.355028
 21
62.841788
 31
0.0
  0
LINE
  5
30a
100
AcDbEntity
  8
Oben
 62
7
100
AcDbLine
 10
111.355028
 20
62.841788
 30
0.0
 11
110.950725
 21
62.923414
 31
0.0
  0
LINE
  5
30b
100
AcDbEntity
  8
Oben
 62
7
100
AcDbLine
 10
110.950725
 20
62.923414
 30
0.0
 11
110.620668
 21
63.146007
 31
0.0
  0
LINE
  5
30c
100
AcDbEntity
  8
Oben
 62
7
100
AcDbLine
 10
110.620668
 20
63.146007
 30
0.0
 11
110.398075
 21
63.476202
 31
0.0
  0
LINE
  5
30d
100
AcDbEntity
  8
Oben
 62
7
100
AcDbLine
 10
110.398075
 20
63.476202
 30
0.0
 11
110.316450
 21
63.880505
 31
0.0
  0
LINE
  5
30e
100
AcDbEntity
  8
Oben
 62
7
100
AcDbLine
 10
110.316450
 20
63.880505
 30
0.0
 11
110.398075
 21
64.284808
 31
0.0
  0
LINE
  5
30f
100
AcDbEntity
  8
Oben
 62
7
100
AcDbLine
 10
110.398075
 20
64.284808
 30
0.0
 11
110.620668
 21
64.614867
 31
0.0
  0
LINE
  5
310
100
AcDbEntity
  8
Oben
 62
7
100
AcDbLine
 10
110.620668
 20
64.614867
 30
0.0
 11
110.950725
 21
64.837596
 31
0.0
  0
LINE
  5
311
100
AcDbEntity
  8
Oben
 62
7
100
AcDbLine
 10
110.950725
 20
64.837596
 30
0.0
 11
111.355028
 21
64.919222
 31
0.0
  0
LINE
  5
312
100
AcDbEntity
  8
Oben
 62
7
100
AcDbLine
 10
111.355028
 20
64.919222
 30
0.0
 11
111.355028
 21
64.919222
 31
0.0
  0
LINE
  5
313
100
AcDbEntity
  8
Oben
 62
7
100
AcDbLine
 10
97.107912
 20
60.692710
 30
0.0
 11
97.252709
 21
60.663587
 31
0.0
  0
LINE
  5
314
100
AcDbEntity
  8
Oben
 62
7
100
AcDbLine
 10
97.252709
 20
60.663587
 30
0.0
 11
97.370975
 21
60.583738
 31
0.0
  0
LINE
  5
315
100
AcDbEntity
  8
Oben
 62
7
100
AcDbLine
 10
97.370975
 20
60.583738
 30
0.0
 11
97.450829
 21
60.465469
 31
0.0
  0
LINE
  5
316
100
AcDbEntity
  8
Oben
 62
7
100
AcDbLine
 10
97.450829
 20
60.465469
 30
0.0
 11
97.480084
 21
60.320538
 31
0.0
  0
LINE
  5
317
100
AcDbEntity
  8
Oben
 62
7
100
AcDbLine
 10
97.480084
 20
60.320538
 30
0.0
 11
97.450829
 21
60.175744
 31
0.0
  0
LINE
  5
318
100
AcDbEntity
  8
Oben
 62
7
100
AcDbLine
 10
97.450829
 20
60.175744
 30
0.0
 11
97.370975
 21
60.057475
 31
0.0
  0
LINE
  5
319
100
AcDbEntity
  8
Oben
 62
7
100
AcDbLine
 10
97.370975
 20
60.057475
 30
0.0
 11
97.252709
 21
59.977626
 31
0.0
  0
LINE
  5
31a
100
AcDbEntity
  8
Oben
 62
7
100
AcDbLine
 10
97.252709
 20
59.977626
 30
0.0
 11
97.107912
 21
59.948366
 31
0.0
  0
LINE
  5
31b
100
AcDbEntity
  8
Oben
 62
7
100
AcDbLine
 10
97.107912
 20
59.948366
 30
0.0
 11
96.962982
 21
59.977626
 31
0.0
  0
LINE
  5
31c
100
AcDbEntity
  8
Oben
 62
7
100
AcDbLine
 10
96.962982
 20
59.977626
 30
0.0
 11
96.844717
 21
60.057475
 31
0.0
  0
LINE
  5
31d
100
AcDbEntity
  8
Oben
 62
7
100
AcDbLine
 10
96.844717
 20
60.057475
 30
0.0
 11
96.765003
 21
60.175744
 31
0.0
  0
LINE
  5
31e
100
AcDbEntity
  8
Oben
 62
7
100
AcDbLine
 10
96.765003
 20
60.175744
 30
0.0
 11
96.735741
 21
60.320538
 31
0.0
  0
LINE
  5
31f
100
AcDbEntity
  8
Oben
 62
7
100
AcDbLine
 10
96.735741
 20
60.320538
 30
0.0
 11
96.765003
 21
60.465469
 31
0.0
  0
LINE
  5
320
100
AcDbEntity
  8
Oben
 62
7
100
AcDbLine
 10
96.765003
 20
60.465469
 30
0.0
 11
96.844717
 21
60.583738
 31
0.0
  0
LINE
  5
321
100
AcDbEntity
  8
Oben
 62
7
100
AcDbLine
 10
96.844717
 20
60.583738
 30
0.0
 11
96.962982
 21
60.663587
 31
0.0
  0
LINE
  5
322
100
AcDbEntity
  8
Oben
 62
7
100
AcDbLine
 10
96.962982
 20
60.663587
 30
0.0
 11
97.107912
 21
60.692710
 31
0.0
  0
LINE
  5
323
100
AcDbEntity
  8
Oben
 62
7
100
AcDbLine
 10
97.107912
 20
60.692710
 30
0.0
 11
97.107912
 21
60.692710
 31
0.0
  0
LINE
  5
324
100
AcDbEntity
  8
Oben
 62
7
100
AcDbLine
 10
89.236940
 20
58.170503
 30
0.0
 11
89.545939
 21
58.042526
 31
0.0
  0
LINE
  5
325
100
AcDbEntity
  8
Oben
 62
7
100
AcDbLine
 10
89.545939
 20
58.042526
 30
0.0
 11
89.673921
 21
57.733386
 31
0.0
  0
LINE
  5
326
100
AcDbEntity
  8
Oben
 62
7
100
AcDbLine
 10
89.673921
 20
57.733386
 30
0.0
 11
89.545939
 21
57.424382
 31
0.0
  0
LINE
  5
327
100
AcDbEntity
  8
Oben
 62
7
100
AcDbLine
 10
89.545939
 20
57.424382
 30
0.0
 11
89.236940
 21
57.296405
 31
0.0
  0
LINE
  5
328
100
AcDbEntity
  8
Oben
 62
7
100
AcDbLine
 10
89.236940
 20
57.296405
 30
0.0
 11
88.927800
 21
57.424382
 31
0.0
  0
LINE
  5
329
100
AcDbEntity
  8
Oben
 62
7
100
AcDbLine
 10
88.927800
 20
57.424382
 30
0.0
 11
88.799818
 21
57.733386
 31
0.0
  0
LINE
  5
32a
100
AcDbEntity
  8
Oben
 62
7
100
AcDbLine
 10
88.799818
 20
57.733386
 30
0.0
 11
88.927800
 21
58.042526
 31
0.0
  0
LINE
  5
32b
100
AcDbEntity
  8
Oben
 62
7
100
AcDbLine
 10
88.927800
 20
58.042526
 30
0.0
 11
89.236940
 21
58.170503
 31
0.0
  0
LINE
  5
32c
100
AcDbEntity
  8
Oben
 62
7
100
AcDbLine
 10
89.236940
 20
58.170503
 30
0.0
 11
89.236940
 21
58.170503
 31
0.0
  0
LINE
  5
32d
100
AcDbEntity
  8
Oben
 62
7
100
AcDbLine
 10
105.126553
 20
58.170503
 30
0.0
 11
105.435699
 21
58.042526
 31
0.0
  0
LINE
  5
32e
100
AcDbEntity
  8
Oben
 62
7
100
AcDbLine
 10
105.435699
 20
58.042526
 30
0.0
 11
105.563674
 21
57.733386
 31
0.0
  0
LINE
  5
32f
100
AcDbEntity
  8
Oben
 62
7
100
AcDbLine
 10
105.563674
 20
57.733386
 30
0.0
 11
105.435699
 21
57.424382
 31
0.0
  0
LINE
  5
330
100
AcDbEntity
  8
Oben
 62
7
100
AcDbLine
 10
105.435699
 20
57.424382
 30
0.0
 11
105.126553
 21
57.296405
 31
0.0
  0
LINE
  5
331
100
AcDbEntity
  8
Oben
 62
7
100
AcDbLine
 10
105.126553
 20
57.296405
 30
0.0
 11
104.817553
 21
57.424382
 31
0.0
  0
LINE
  5
332
100
AcDbEntity
  8
Oben
 62
7
100
AcDbLine
 10
104.817553
 20
57.424382
 30
0.0
 11
104.689578
 21
57.733386
 31
0.0
  0
LINE
  5
333
100
AcDbEntity
  8
Oben
 62
7
100
AcDbLine
 10
104.689578
 20
57.733386
 30
0.0
 11
104.817553
 21
58.042526
 31
0.0
  0
LINE
  5
334
100
AcDbEntity
  8
Oben
 62
7
100
AcDbLine
 10
104.817553
 20
58.042526
 30
0.0
 11
105.126553
 21
58.170503
 31
0.0
  0
LINE
  5
335
100
AcDbEntity
  8
Oben
 62
7
100
AcDbLine
 10
105.126553
 20
58.170503
 30
0.0
 11
105.126553
 21
58.170503
 31
0.0
  0
LINE
  5
336
100
AcDbEntity
  8
Oben
 62
7
100
AcDbLine
 10
39.947576
 20
20.356433
 30
0.0
 11
39.947576
 21
16.984658
 31
0.0
  0
LINE
  5
337
100
AcDbEntity
  8
Oben
 62
7
100
AcDbLine
 10
39.947576
 20
16.984658
 30
0.0
 11
32.702432
 21
18.765886
 31
0.0
  0
LINE
  5
338
100
AcDbEntity
  8
Oben
 62
7
100
AcDbLine
 10
32.702432
 20
18.765886
 30
0.0
 11
32.702432
 21
20.462112
 31
0.0
  0
LINE
  5
339
100
AcDbEntity
  8
Oben
 62
7
100
AcDbLine
 10
32.702432
 20
20.462112
 30
0.0
 11
36.770311
 21
19.461990
 31
0.0
  0
LINE
  5
33a
100
AcDbEntity
  8
Oben
 62
7
100
AcDbLine
 10
36.770311
 20
19.461990
 30
0.0
 11
36.770311
 21
21.137540
 31
0.0
  0
LINE
  5
33b
100
AcDbEntity
  8
Oben
 62
7
100
AcDbLine
 10
36.770311
 20
21.137540
 30
0.0
 11
39.947576
 21
20.356433
 31
0.0
  0
LINE
  5
33c
100
AcDbEntity
  8
Oben
 62
7
100
AcDbLine
 10
39.947576
 20
16.511399
 30
0.0
 11
39.947576
 21
12.547667
 31
0.0
  0
LINE
  5
33d
100
AcDbEntity
  8
Oben
 62
7
100
AcDbLine
 10
39.947576
 20
12.547667
 30
0.0
 11
36.277142
 21
13.449769
 31
0.0
  0
LINE
  5
33e
100
AcDbEntity
  8
Oben
 62
7
100
AcDbLine
 10
36.277142
 20
13.449769
 30
0.0
 11
36.277142
 21
9.770145
 31
0.0
  0
LINE
  5
33f
100
AcDbEntity
  8
Oben
 62
7
100
AcDbLine
 10
36.277142
 20
9.770145
 30
0.0
 11
32.702432
 21
10.648507
 31
0.0
  0
LINE
  5
340
100
AcDbEntity
  8
Oben
 62
7
100
AcDbLine
 10
32.702432
 20
10.648507
 30
0.0
 11
32.702432
 21
14.331959
 31
0.0
  0
LINE
  5
341
100
AcDbEntity
  8
Oben
 62
7
100
AcDbLine
 10
32.702432
 20
14.331959
 30
0.0
 11
31.016927
 21
14.745486
 31
0.0
  0
SPLINE
  5
342
100
AcDbEntity
  8
Oben
 62
7
100
AcDbSpline
 70
8
 71
3
 72
8
 73
4
 74
0
 40
0
 40
0
 40
0
 40
0
 40
1
 40
1
 40
1
 40
1
 10
31.016927
 20
14.745486
 30
0.0
 10
31.016927
 20
14.745486
 30
0.0
 10
30.591148
 20
14.872607
 30
0.0
 10
30.322355
 20
14.827426
 30
0.0
  0
SPLINE
  5
343
100
AcDbEntity
  8
Oben
 62
7
100
AcDbSpline
 70
8
 71
3
 72
8
 73
4
 74
0
 40
0
 40
0
 40
0
 40
0
 40
1
 40
1
 40
1
 40
1
 10
30.322355
 20
14.827426
 30
0.0
 10
30.116358
 20
14.792996
 30
0.0
 10
29.995363
 20
14.748549
 30
0.0
 10
29.824592
 20
14.628320
 30
0.0
  0
SPLINE
  5
344
100
AcDbEntity
  8
Oben
 62
7
100
AcDbSpline
 70
8
 71
3
 72
8
 73
4
 74
0
 40
0
 40
0
 40
0
 40
0
 40
1
 40
1
 40
1
 40
1
 10
29.824592
 20
14.628320
 30
0.0
 10
29.622423
 20
14.485117
 30
0.0
 10
29.525933
 20
14.359528
 30
0.0
 10
29.426380
 20
14.132854
 30
0.0
  0
SPLINE
  5
345
100
AcDbEntity
  8
Oben
 62
7
100
AcDbSpline
 70
8
 71
3
 72
8
 73
4
 74
0
 40
0
 40
0
 40
0
 40
0
 40
1
 40
1
 40
1
 40
1
 10
29.426380
 20
14.132854
 30
0.0
 10
29.332188
 20
13.917667
 30
0.0
 10
29.327593
 20
13.538600
 30
0.0
 10
29.327593
 20
13.538600
 30
0.0
  0
LINE
  5
346
100
AcDbEntity
  8
Oben
 62
7
100
AcDbLine
 10
29.327593
 20
13.538600
 30
0.0
 11
29.327593
 21
10.662291
 31
0.0
  0
LINE
  5
347
100
AcDbEntity
  8
Oben
 62
7
100
AcDbLine
 10
29.327593
 20
10.662291
 30
0.0
 11
25.355438
 21
11.638674
 31
0.0
  0
LINE
  5
348
100
AcDbEntity
  8
Oben
 62
7
100
AcDbLine
 10
25.355438
 20
11.638674
 30
0.0
 11
25.355438
 21
14.635978
 31
0.0
  0
SPLINE
  5
349
100
AcDbEntity
  8
Oben
 62
7
100
AcDbSpline
 70
8
 71
3
 72
8
 73
4
 74
0
 40
0
 40
0
 40
0
 40
0
 40
1
 40
1
 40
1
 40
1
 10
25.355438
 20
14.635978
 30
0.0
 10
25.329401
 20
17.262640
 30
0.0
 10
27.135135
 20
18.909089
 30
0.0
 10
29.361288
 20
18.909089
 30
0.0
  0
SPLINE
  5
34a
100
AcDbEntity
  8
Oben
 62
7
100
AcDbSpline
 70
8
 71
3
 72
8
 73
4
 74
0
 40
0
 40
0
 40
0
 40
0
 40
1
 40
1
 40
1
 40
1
 10
29.361288
 20
18.909089
 30
0.0
 10
29.846799
 20
18.909089
 30
0.0
 10
30.624077
 20
18.769715
 30
0.0
 10
31.966508
 20
18.474886
 30
0.0
  0
LINE
  5
34b
100
AcDbEntity
  8
Oben
 62
7
100
AcDbLine
 10
31.966508
 20
18.474886
 30
0.0
 11
32.730001
 21
18.284970
 31
0.0
  0
LINE
  5
34c
100
AcDbEntity
  8
Oben
 62
7
100
AcDbLine
 10
32.730001
 20
18.284970
 30
0.0
 11
39.947576
 21
16.511399
 31
0.0
  0
LINE
  5
34d
100
AcDbEntity
  8
Oben
 62
7
100
AcDbLine
 10
36.277142
 20
22.635426
 30
0.0
 11
36.277142
 21
20.056243
 31
0.0
  0
LINE
  5
34e
100
AcDbEntity
  8
Oben
 62
7
100
AcDbLine
 10
36.277142
 20
20.056243
 30
0.0
 11
32.702432
 21
20.934605
 31
0.0
  0
LINE
  5
34f
100
AcDbEntity
  8
Oben
 62
7
100
AcDbLine
 10
32.702432
 20
20.934605
 30
0.0
 11
32.702432
 21
23.431848
 31
0.0
  0
SPLINE
  5
350
100
AcDbEntity
  8
Oben
 62
7
100
AcDbSpline
 70
8
 71
3
 72
8
 73
4
 74
0
 40
0
 40
0
 40
0
 40
0
 40
1
 40
1
 40
1
 40
1
 10
32.702432
 20
23.431848
 30
0.0
 10
32.699982
 20
24.433502
 30
0.0
 10
31.658660
 20
25.472680
 30
0.0
 10
30.732053
 20
25.472680
 30
0.0
  0
SPLINE
  5
351
100
AcDbEntity
  8
Oben
 62
7
100
AcDbSpline
 70
8
 71
3
 72
8
 73
4
 74
0
 40
0
 40
0
 40
0
 40
0
 40
1
 40
1
 40
1
 40
1
 10
30.732053
 20
25.472680
 30
0.0
 10
30.203658
 20
25.472680
 30
0.0
 10
29.332954
 20
25.210014
 30
0.0
 10
29.327593
 20
24.345436
 30
0.0
  0
LINE
  5
352
100
AcDbEntity
  8
Oben
 62
7
100
AcDbLine
 10
29.327593
 20
24.345436
 30
0.0
 11
29.327593
 21
20.152733
 31
0.0
  0
LINE
  5
353
100
AcDbEntity
  8
Oben
 62
7
100
AcDbLine
 10
29.327593
 20
20.152733
 30
0.0
 11
25.355438
 21
21.129116
 31
0.0
  0
LINE
  5
354
100
AcDbEntity
  8
Oben
 62
7
100
AcDbLine
 10
25.355438
 20
21.129116
 30
0.0
 11
25.355438
 21
25.220735
 31
0.0
  0
SPLINE
  5
355
100
AcDbEntity
  8
Oben
 62
7
100
AcDbSpline
 70
8
 71
3
 72
8
 73
4
 74
0
 40
0
 40
0
 40
0
 40
0
 40
1
 40
1
 40
1
 40
1
 10
25.355438
 20
25.220735
 30
0.0
 10
25.296503
 20
27.852757
 30
0.0
 10
27.148154
 20
29.481593
 30
0.0
 10
29.374307
 20
29.481593
 30
0.0
  0
SPLINE
  5
356
100
AcDbEntity
  8
Oben
 62
7
100
AcDbSpline
 70
8
 71
3
 72
8
 73
4
 74
0
 40
0
 40
0
 40
0
 40
0
 40
1
 40
1
 40
1
 40
1
 10
29.374307
 20
29.481593
 30
0.0
 10
32.526300
 20
29.481593
 30
0.0
 10
36.282503
 20
26.503434
 30
0.0
 10
36.277142
 20
22.635426
 30
0.0
  0
LINE
  5
357
100
AcDbEntity
  8
Oben
 62
7
100
AcDbLine
 10
112.052043
 20
20.356433
 30
0.0
 11
112.052043
 21
16.984658
 31
0.0
  0
LINE
  5
358
100
AcDbEntity
  8
Oben
 62
7
100
AcDbLine
 10
112.052043
 20
16.984658
 30
0.0
 11
104.806899
 21
18.765886
 31
0.0
  0
LINE
  5
359
100
AcDbEntity
  8
Oben
 62
7
100
AcDbLine
 10
104.806899
 20
18.765886
 30
0.0
 11
104.806899
 21
20.462112
 31
0.0
  0
LINE
  5
35a
100
AcDbEntity
  8
Oben
 62
7
100
AcDbLine
 10
104.806899
 20
20.462112
 30
0.0
 11
108.874778
 21
19.461990
 31
0.0
  0
LINE
  5
35b
100
AcDbEntity
  8
Oben
 62
7
100
AcDbLine
 10
108.874778
 20
19.461990
 30
0.0
 11
108.874778
 21
21.137540
 31
0.0
  0
LINE
  5
35c
100
AcDbEntity
  8
Oben
 62
7
100
AcDbLine
 10
108.874778
 20
21.137540
 30
0.0
 11
112.052043
 21
20.356433
 31
0.0
  0
LINE
  5
35d
100
AcDbEntity
  8
Oben
 62
7
100
AcDbLine
 10
112.052043
 20
16.511399
 30
0.0
 11
112.052043
 21
12.547667
 31
0.0
  0
LINE
  5
35e
100
AcDbEntity
  8
Oben
 62
7
100
AcDbLine
 10
112.052043
 20
12.547667
 30
0.0
 11
108.381609
 21
13.449769
 31
0.0
  0
LINE
  5
35f
100
AcDbEntity
  8
Oben
 62
7
100
AcDbLine
 10
108.381609
 20
13.449769
 30
0.0
 11
108.381609
 21
9.770145
 31
0.0
  0
LINE
  5
360
100
AcDbEntity
  8
Oben
 62
7
100
AcDbLine
 10
108.381609
 20
9.770145
 30
0.0
 11
104.806899
 21
10.648507
 31
0.0
  0
LINE
  5
361
100
AcDbEntity
  8
Oben
 62
7
100
AcDbLine
 10
104.806899
 20
10.648507
 30
0.0
 11
104.806899
 21
14.331959
 31
0.0
  0
LINE
  5
362
100
AcDbEntity
  8
Oben
 62
7
100
AcDbLine
 10
104.806899
 20
14.331959
 30
0.0
 11
103.121394
 21
14.745486
 31
0.0
  0
SPLINE
  5
363
100
AcDbEntity
  8
Oben
 62
7
100
AcDbSpline
 70
8
 71
3
 72
8
 73
4
 74
0
 40
0
 40
0
 40
0
 40
0
 40
1
 40
1
 40
1
 40
1
 10
103.121394
 20
14.745486
 30
0.0
 10
103.121394
 20
14.745486
 30
0.0
 10
102.695614
 20
14.872607
 30
0.0
 10
102.426822
 20
14.827426
 30
0.0
  0
SPLINE
  5
364
100
AcDbEntity
  8
Oben
 62
7
100
AcDbSpline
 70
8
 71
3
 72
8
 73
4
 74
0
 40
0
 40
0
 40
0
 40
0
 40
1
 40
1
 40
1
 40
1
 10
102.426822
 20
14.827426
 30
0.0
 10
102.220824
 20
14.792996
 30
0.0
 10
102.099829
 20
14.748549
 30
0.0
 10
101.929058
 20
14.628320
 30
0.0
  0
SPLINE
  5
365
100
AcDbEntity
  8
Oben
 62
7
100
AcDbSpline
 70
8
 71
3
 72
8
 73
4
 74
0
 40
0
 40
0
 40
0
 40
0
 40
1
 40
1
 40
1
 40
1
 10
101.929058
 20
14.628320
 30
0.0
 10
101.726889
 20
14.485117
 30
0.0
 10
101.630400
 20
14.359528
 30
0.0
 10
101.530847
 20
14.132854
 30
0.0
  0
SPLINE
  5
366
100
AcDbEntity
  8
Oben
 62
7
100
AcDbSpline
 70
8
 71
3
 72
8
 73
4
 74
0
 40
0
 40
0
 40
0
 40
0
 40
1
 40
1
 40
1
 40
1
 10
101.530847
 20
14.132854
 30
0.0
 10
101.436655
 20
13.917667
 30
0.0
 10
101.432060
 20
13.538600
 30
0.0
 10
101.432060
 20
13.538600
 30
0.0
  0
LINE
  5
367
100
AcDbEntity
  8
Oben
 62
7
100
AcDbLine
 10
101.432060
 20
13.538600
 30
0.0
 11
101.432060
 21
10.662291
 31
0.0
  0
LINE
  5
368
100
AcDbEntity
  8
Oben
 62
7
100
AcDbLine
 10
101.432060
 20
10.662291
 30
0.0
 11
97.459905
 21
11.638674
 31
0.0
  0
LINE
  5
369
100
AcDbEntity
  8
Oben
 62
7
100
AcDbLine
 10
97.459905
 20
11.638674
 30
0.0
 11
97.459905
 21
14.635978
 31
0.0
  0
SPLINE
  5
36a
100
AcDbEntity
  8
Oben
 62
7
100
AcDbSpline
 70
8
 71
3
 72
8
 73
4
 74
0
 40
0
 40
0
 40
0
 40
0
 40
1
 40
1
 40
1
 40
1
 10
97.459905
 20
14.635978
 30
0.0
 10
97.433868
 20
17.262640
 30
0.0
 10
99.239602
 20
18.909089
 30
0.0
 10
101.465755
 20
18.909089
 30
0.0
  0
SPLINE
  5
36b
100
AcDbEntity
  8
Oben
 62
7
100
AcDbSpline
 70
8
 71
3
 72
8
 73
4
 74
0
 40
0
 40
0
 40
0
 40
0
 40
1
 40
1
 40
1
 40
1
 10
101.465755
 20
18.909089
 30
0.0
 10
101.951266
 20
18.909089
 30
0.0
 10
102.728543
 20
18.769715
 30
0.0
 10
104.070974
 20
18.474886
 30
0.0
  0
LINE
  5
36c
100
AcDbEntity
  8
Oben
 62
7
100
AcDbLine
 10
104.070974
 20
18.474886
 30
0.0
 11
104.834467
 21
18.284970
 31
0.0
  0
LINE
  5
36d
100
AcDbEntity
  8
Oben
 62
7
100
AcDbLine
 10
104.834467
 20
18.284970
 30
0.0
 11
112.052043
 21
16.511399
 31
0.0
  0
LINE
  5
36e
100
AcDbEntity
  8
Oben
 62
7
100
AcDbLine
 10
108.381609
 20
22.635426
 30
0.0
 11
108.381609
 21
20.056243
 31
0.0
  0
LINE
  5
36f
100
AcDbEntity
  8
Oben
 62
7
100
AcDbLine
 10
108.381609
 20
20.056243
 30
0.0
 11
104.806899
 21
20.934605
 31
0.0
  0
LINE
  5
370
100
AcDbEntity
  8
Oben
 62
7
100
AcDbLine
 10
104.806899
 20
20.934605
 30
0.0
 11
104.806899
 21
23.431848
 31
0.0
  0
SPLINE
  5
371
100
AcDbEntity
  8
Oben
 62
7
100
AcDbSpline
 70
8
 71
3
 72
8
 73
4
 74
0
 40
0
 40
0
 40
0
 40
0
 40
1
 40
1
 40
1
 40
1
 10
104.806899
 20
23.431848
 30
0.0
 10
104.804448
 20
24.433502
 30
0.0
 10
103.763126
 20
25.472680
 30
0.0
 10
102.836520
 20
25.472680
 30
0.0
  0
SPLINE
  5
372
100
AcDbEntity
  8
Oben
 62
7
100
AcDbSpline
 70
8
 71
3
 72
8
 73
4
 74
0
 40
0
 40
0
 40
0
 40
0
 40
1
 40
1
 40
1
 40
1
 10
102.836520
 20
25.472680
 30
0.0
 10
102.308124
 20
25.472680
 30
0.0
 10
101.437420
 20
25.210014
 30
0.0
 10
101.432060
 20
24.345436
 30
0.0
  0
LINE
  5
373
100
AcDbEntity
  8
Oben
 62
7
100
AcDbLine
 10
101.432060
 20
24.345436
 30
0.0
 11
101.432060
 21
20.152733
 31
0.0
  0
LINE
  5
374
100
AcDbEntity
  8
Oben
 62
7
100
AcDbLine
 10
101.432060
 20
20.152733
 30
0.0
 11
97.459905
 21
21.129116
 31
0.0
  0
LINE
  5
375
100
AcDbEntity
  8
Oben
 62
7
100
AcDbLine
 10
97.459905
 20
21.129116
 30
0.0
 11
97.459905
 21
25.220735
 31
0.0
  0
SPLINE
  5
376
100
AcDbEntity
  8
Oben
 62
7
100
AcDbSpline
 70
8
 71
3
 72
8
 73
4
 74
0
 40
0
 40
0
 40
0
 40
0
 40
1
 40
1
 40
1
 40
1
 10
97.459905
 20
25.220735
 30
0.0
 10
97.400969
 20
27.852757
 30
0.0
 10
99.252620
 20
29.481593
 30
0.0
 10
101.478773
 20
29.481593
 30
0.0
  0
SPLINE
  5
377
100
AcDbEntity
  8
Oben
 62
7
100
AcDbSpline
 70
8
 71
3
 72
8
 73
4
 74
0
 40
0
 40
0
 40
0
 40
0
 40
1
 40
1
 40
1
 40
1
 10
101.478773
 20
29.481593
 30
0.0
 10
104.630767
 20
29.481593
 30
0.0
 10
108.386969
 20
26.503434
 30
0.0
 10
108.381609
 20
22.635426
 30
0.0
  0
ENDSEC
  0
SECTION
  2
OBJECTS
  0
DICTIONARY
  5
C
330
0
100
AcDbDictionary
  3
ACAD_GROUP
350
D
  3
ACAD_MLINESTYLE
350
17
  0
DICTIONARY
  5
D
330
C
100
AcDbDictionary
  0
DICTIONARY
  5
1A
330
C
100
AcDbDictionary
  0
DICTIONARY
  5
17
330
C
100
AcDbDictionary
  3
STANDARD
350
18
  0
DICTIONARY
  5
19
330
C
100
AcDbDictionary
  0
ENDSEC
  0
EOF
