<?xml version="1.0" encoding="UTF-8" standalone="no"?>
<!-- Created with Inkscape (http://www.inkscape.org/) -->

<svg
   xmlns:dc="http://purl.org/dc/elements/1.1/"
   xmlns:cc="http://creativecommons.org/ns#"
   xmlns:rdf="http://www.w3.org/1999/02/22-rdf-syntax-ns#"
   xmlns:svg="http://www.w3.org/2000/svg"
   xmlns="http://www.w3.org/2000/svg"
   xmlns:sodipodi="http://sodipodi.sourceforge.net/DTD/sodipodi-0.dtd"
   xmlns:inkscape="http://www.inkscape.org/namespaces/inkscape"
   width="548.20001mm"
   height="290.20001mm"
   viewBox="0 0 548.20001 290.20002"
   version="1.1"
   id="svg8"
   inkscape:version="0.92.1 r15371"
   sodipodi:docname="LaserCut.svg">
  <defs
     id="defs2">
    <clipPath
       id="clipPath617">
      <path
         id="path619"
         d="M 343.417,613.914 L 345.118,609.766 L 345.638,609.246 L 342.376,609.246 C 341.069,609.243 339.711,607.884 339.711,606.674 C 339.711,605.984 340.055,604.846 341.183,604.84 C 341.183,604.84 334.477,601.993 334.477,604.9 C 334.477,609.017 338.366,613.921 343.417,613.914" />
    </clipPath>
  </defs>
  <sodipodi:namedview
     id="base"
     pagecolor="#ffffff"
     bordercolor="#666666"
     borderopacity="1.0"
     inkscape:pageopacity="0.0"
     inkscape:pageshadow="2"
     inkscape:zoom="0.35355339"
     inkscape:cx="529.09318"
     inkscape:cy="390.57668"
     inkscape:document-units="mm"
     inkscape:current-layer="g4707"
     showgrid="false"
     fit-margin-top="0"
     fit-margin-left="0"
     fit-margin-right="0"
     fit-margin-bottom="0"
     inkscape:window-width="1920"
     inkscape:window-height="1016"
     inkscape:window-x="1080"
     inkscape:window-y="450"
     inkscape:window-maximized="1" />
  <metadata
     id="metadata5">
    <rdf:RDF>
      <cc:Work
         rdf:about="">
        <dc:format>image/svg+xml</dc:format>
        <dc:type
           rdf:resource="http://purl.org/dc/dcmitype/StillImage" />
        <dc:title></dc:title>
      </cc:Work>
    </rdf:RDF>
  </metadata>
  <g
     inkscape:groupmode="layer"
     id="layer4"
     inkscape:label="Rechts"
     transform="translate(0.1,-6.900005)">
    <path
       style="opacity:1;fill:none;stroke:#000000;stroke-width:0.75590551;stroke-linecap:round;stroke-linejoin:bevel;stroke-miterlimit:4;stroke-dasharray:none;stroke-dashoffset:0;stroke-opacity:1"
       d="M 1187.5273 287.24414 L 1187.5273 317.48047 L 1036.3457 317.48047 L 1036.3457 374.55078 L 1066.582 374.55078 L 1066.582 487.9375 L 1036.3457 487.9375 L 1036.3457 544.25195 L 1187.5273 544.25195 L 1187.5273 574.48828 L 1452.0938 574.48828 L 1452.0938 544.25195 L 1678.8652 544.25195 L 1678.8652 574.48828 L 1920.7559 574.48828 L 1920.7559 544.25195 L 2071.5586 544.25195 L 2071.5586 487.9375 L 2041.6992 487.9375 L 2041.6992 374.55078 L 2071.5586 374.55078 L 2071.5586 317.48047 L 1920.7559 317.48047 L 1920.7559 287.24414 L 1678.8652 287.24414 L 1678.8652 317.48047 L 1452.0938 317.48047 L 1452.0938 287.24414 L 1187.5273 287.24414 z M 1493.1719 337.29688 L 1503.8672 338.27734 L 1514.6191 340.22461 L 1479.916 380.10938 L 1430.5645 357.29102 C 1437.344 352.14171 1444.0195 347.67708 1451.0977 345.03516 L 1461.498 341.15234 L 1471.9824 338.63477 L 1482.541 337.38281 L 1493.1719 337.29688 z M 1521.3594 342.71484 C 1529.2057 346.01818 1536.4056 349.57092 1542.2285 354.38477 L 1550.7852 361.45898 L 1558.2012 369.28516 L 1564.5586 377.81055 L 1569.9414 386.97656 L 1574.4297 396.73438 L 1578.1113 407.02344 L 1526.2266 396.86523 L 1521.3594 342.71484 z M 1515.1973 349.79297 L 1519.7383 396.94727 L 1498.2754 403.33789 L 1485.8633 384.00977 L 1515.1973 349.79297 z M 1424.3145 361.93359 L 1441.4883 411.93555 L 1397.041 443.25 C 1395.9741 434.8037 1395.4477 426.79219 1396.7012 419.3418 L 1398.543 408.39258 L 1401.6074 398.05664 L 1405.8066 388.28711 L 1411.0488 379.03906 L 1417.25 370.26953 L 1424.3145 361.93359 z M 1432.6113 365.74805 L 1475.9609 385.67383 L 1470.7812 407.45898 L 1447.6113 408.24805 L 1432.6113 365.74805 z M 1860.2832 374.42578 L 1890.5195 374.42578 L 1890.5195 487.24414 L 1860.2832 487.24414 L 1860.2832 374.42578 z M 1481.5391 387.74219 L 1495.2773 410.67383 L 1520.1816 402.32812 L 1507.1895 425.69141 L 1526.8691 443.08594 L 1500.1426 443.51562 L 1494.916 469.25781 L 1481.1797 446.32617 L 1456.2754 454.66992 L 1469.2656 431.30859 L 1449.5859 413.91211 L 1476.3145 413.48242 L 1481.5391 387.74219 z M 1526.8418 403.80664 L 1571.1348 412.13086 L 1532.3223 439.54883 L 1516.0684 424.14844 L 1526.8418 403.80664 z M 1579.4766 414.55273 C 1580.5435 422.99903 1581.0699 431.01054 1579.8164 438.46094 L 1577.9746 449.4082 L 1574.9102 459.74609 L 1570.7109 469.51562 L 1565.4668 478.76367 L 1559.2676 487.5332 L 1552.2012 495.86914 L 1535.0293 445.86719 L 1579.4766 414.55273 z M 1445.0039 417.50391 L 1461.2578 432.90625 L 1449.7266 453.88086 L 1405.4336 445.55469 L 1445.0039 417.50391 z M 1528.957 449.4375 L 1543.957 491.9375 L 1500.2285 471.88672 L 1505.0293 449.97461 L 1528.957 449.4375 z M 1398.4062 450.7793 L 1450.291 460.93555 L 1455.1582 515.08789 C 1447.3118 511.78458 1440.11 508.2318 1434.2871 503.41797 L 1425.7305 496.34375 L 1418.3164 488.51758 L 1411.959 479.99219 L 1406.5762 470.82422 L 1402.0859 461.06836 L 1398.4062 450.7793 z M 1478.293 453.21094 L 1490.7051 473.67578 L 1461.3711 507.89258 L 1456.8301 459.60352 L 1478.293 453.21094 z M 1496.6016 477.69336 L 1545.9512 500.51172 C 1539.1716 505.66102 1532.498 510.12565 1525.4199 512.76758 L 1515.0195 516.65039 L 1504.5352 519.16797 L 1493.9746 520.41992 L 1483.3457 520.50586 L 1472.6504 519.52539 L 1461.8965 517.57812 L 1496.6016 477.69336 z "
       transform="matrix(0.26458333,0,0,0.26458333,-0.1,6.900005)"
       id="rect4485-3-3" />
  </g>
  <g
     inkscape:groupmode="layer"
     id="layer3"
     inkscape:label="Hinten"
     transform="translate(0.1,-6.900005)">
    <path
       style="opacity:1;fill:none;stroke:#000000;stroke-width:0.75590551;stroke-linecap:round;stroke-linejoin:bevel;stroke-miterlimit:4;stroke-dasharray:none;stroke-dashoffset:0;stroke-opacity:1"
       d="m 1035.9688,544.63086 v 143.62305 h 30.2363 v 264.5664 h -30.2363 v 143.62109 h 151.1816 v -30.2363 h 264.5664 v 30.2363 h 226.7715 v -30.2363 h 241.8906 v 30.2363 h 151.1797 V 952.82031 h -30.2363 v -264.5664 h 30.2363 V 544.63086 h -151.1797 v 30.23633 h -241.8906 v -30.23633 h -226.7715 v 30.23633 h -264.5664 v -30.23633 z m 823.9374,143.62305 h 30.2364 v 264.5664 h -30.2364 z m 27.3793,-92.40765 h 37.7949 v 56.69336 h -37.7949 z"
       transform="matrix(0.26458333,0,0,0.26458333,-0.1,6.900005)"
       id="rect4485-2"
       inkscape:connector-curvature="0"
       sodipodi:nodetypes="ccccccccccccccccccccccccccccccccccccccc" />
  </g>
  <g
     inkscape:groupmode="layer"
     id="layer2"
     inkscape:label="Links"
     transform="translate(0.1,-6.900005)">
    <path
       style="opacity:1;fill:none;stroke:#000000;stroke-width:0.75590551;stroke-linecap:round;stroke-linejoin:bevel;stroke-miterlimit:4;stroke-dasharray:none;stroke-dashoffset:0;stroke-opacity:1"
       d="M 151.56055 287.62305 L 151.56055 317.85742 L 0.37890625 317.85742 L 0.37890625 374.55078 L 30.615234 374.55078 L 30.615234 487.9375 L 0.37890625 487.9375 L 0.37890625 544.63086 L 151.56055 544.63086 L 151.56055 574.86523 L 416.12695 574.86523 L 416.12695 544.63086 L 642.89844 544.63086 L 642.89844 574.86523 L 884.78906 574.86523 L 884.78906 544.63086 L 1035.9668 544.63086 L 1035.9668 488.2832 L 1005.7324 488.2832 L 1005.7324 374.61328 L 1035.9668 374.61328 L 1035.9668 317.85742 L 884.78906 317.85742 L 884.78906 287.62305 L 642.89844 287.62305 L 642.89844 317.85742 L 416.12695 317.85742 L 416.12695 287.62305 L 151.56055 287.62305 z M 458.77539 337.29688 L 469.4707 338.27734 L 480.22266 340.22461 L 445.51953 380.10938 L 396.16797 357.29102 C 402.94753 352.14171 409.62306 347.67708 416.70117 345.03516 L 427.10156 341.15234 L 437.58594 338.63477 L 448.14453 337.38281 L 458.77539 337.29688 z M 486.96289 342.71484 C 494.80927 346.01818 502.0091 349.57094 507.83203 354.38477 L 516.38867 361.45898 L 523.80469 369.28516 L 530.16211 377.81055 L 535.54492 386.97656 L 540.0332 396.73438 L 543.71484 407.02344 L 491.83008 396.86523 L 486.96289 342.71484 z M 480.80078 349.79297 L 485.3418 396.94727 L 463.87891 403.33789 L 451.4668 384.00977 L 480.80078 349.79297 z M 389.91797 361.93359 L 407.0918 411.93555 L 362.64453 443.25 C 361.57761 434.8037 361.0512 426.79219 362.30469 419.3418 L 364.14648 408.39258 L 367.21094 398.05664 L 371.41016 388.28711 L 376.65234 379.03906 L 382.85352 370.26953 L 389.91797 361.93359 z M 398.21484 365.74805 L 441.56445 385.67383 L 436.38477 407.45898 L 413.21484 408.24805 L 398.21484 365.74805 z M 824.31641 374.48828 L 854.55273 374.48828 L 854.55273 487.58984 L 824.31641 487.58984 L 824.31641 374.48828 z M 447.14258 387.74219 L 460.88086 410.67383 L 485.78516 402.32812 L 472.79297 425.69141 L 492.47266 443.08594 L 465.74609 443.51562 L 460.51953 469.25781 L 446.7832 446.32617 L 421.87891 454.66992 L 434.86914 431.30859 L 415.18945 413.91211 L 441.91797 413.48242 L 447.14258 387.74219 z M 492.44531 403.80664 L 536.73828 412.13086 L 497.92578 439.54883 L 481.67188 424.14844 L 492.44531 403.80664 z M 545.08008 414.55273 C 546.14704 422.99903 546.6734 431.01054 545.41992 438.46094 L 543.57812 449.4082 L 540.51367 459.74609 L 536.31445 469.51562 L 531.07031 478.76367 L 524.87109 487.5332 L 517.80469 495.86914 L 500.63281 445.86719 L 545.08008 414.55273 z M 410.60742 417.50391 L 426.86133 432.90625 L 415.33008 453.88086 L 371.03711 445.55469 L 410.60742 417.50391 z M 494.56055 449.4375 L 509.56055 491.9375 L 465.83203 471.88672 L 470.63281 449.97461 L 494.56055 449.4375 z M 364.00977 450.7793 L 415.89453 460.93555 L 420.76172 515.08789 C 412.91534 511.78455 405.71355 508.2318 399.89062 503.41797 L 391.33398 496.34375 L 383.91992 488.51758 L 377.5625 479.99219 L 372.17969 470.82422 L 367.68945 461.06836 L 364.00977 450.7793 z M 443.89648 453.21094 L 456.30859 473.67578 L 426.97461 507.89258 L 422.43359 459.60352 L 443.89648 453.21094 z M 462.20508 477.69336 L 511.55469 500.51172 C 504.77512 505.66102 498.10155 510.12565 491.02344 512.76758 L 480.62305 516.65039 L 470.13867 519.16797 L 459.57812 520.41992 L 448.94922 520.50586 L 438.25391 519.52539 L 427.5 517.57812 L 462.20508 477.69336 z "
       transform="matrix(0.26458333,0,0,0.26458333,-0.1,6.900005)"
       id="rect4485-3" />
  </g>
  <g
     inkscape:label="Vorne"
     inkscape:groupmode="layer"
     id="layer1"
     transform="translate(0.1,-6.900005)">
    <path
       style="opacity:1;fill:none;stroke:#000000;stroke-width:0.75590551;stroke-linecap:round;stroke-linejoin:bevel;stroke-miterlimit:4;stroke-dasharray:none;stroke-dashoffset:0;stroke-opacity:1"
       d="M 0,291.02344 V 434.64648 H 30.236328 V 699.21289 H 0 v 143.62109 h 151.18164 v -30.23632 h 264.56641 v 30.23632 h 226.77148 v -30.23632 h 241.89063 v 30.23632 H 1035.5898 V 699.21289 h -30.2363 V 434.64648 h 30.2363 V 291.02344 H 884.41016 v 30.23633 H 642.51953 V 291.02344 H 415.74805 v 30.23633 H 151.18164 v -30.23633 z m 823.9375,143.62304 h 30.23633 V 699.21289 H 823.9375 Z"
       transform="matrix(0.26458333,0,0,0.26458333,0,74)"
       id="rect4485"
       inkscape:connector-curvature="0" />
  </g>
  <g
     inkscape:groupmode="layer"
     id="layer5"
     inkscape:label="Unten"
     transform="translate(0.1,67.099995)">
    <path
       style="opacity:1;fill:none;stroke:#000000;stroke-width:0.2;stroke-linecap:round;stroke-linejoin:bevel;stroke-miterlimit:4;stroke-dasharray:none;stroke-dashoffset:0;stroke-opacity:1"
       d="m 148.1,-43.999846 h -8.00003 V -58.999964 H 110 v -8.000031 H 39.999622 v 8.000031 H 9.999903 v 15.000118 H 1.999875 v 29.999718 H 9.999903 V 0.99999 H 39.999622 V 9.000019 H 110 V 0.99999 h 30.09997 V -14.000128 H 148.1 Z"
       id="rect4485-5"
       inkscape:connector-curvature="0" />
  </g>
  <g
     inkscape:groupmode="layer"
     id="layer6"
     inkscape:label="Mitte"
     transform="translate(0.1,67.099995)">
    <path
       style="opacity:1;fill:none;stroke:#000000;stroke-width:0.75590551;stroke-linecap:round;stroke-linejoin:bevel;stroke-miterlimit:4;stroke-dasharray:none;stroke-dashoffset:0;stroke-opacity:1"
       d="M 703.74805 0.37890625 L 703.74805 30.615234 L 590.36328 30.615234 L 590.36328 87.308594 L 560.12695 87.308594 L 560.12695 200.69336 L 590.36328 200.69336 L 590.36328 257.38672 L 690.89648 257.38672 L 690.89648 251.11133 L 703.74805 251.11133 L 703.74805 257.38672 L 703.74805 287.62305 L 968.31641 287.62305 L 968.31641 257.38672 L 968.31641 251.11133 L 981.16602 251.11133 L 981.16602 257.38672 L 1082.0801 257.38672 L 1082.0801 200.69336 L 1112.3164 200.69336 L 1112.3164 87.308594 L 1082.0801 87.308594 L 1082.0801 30.615234 L 968.31641 30.615234 L 968.31641 0.37890625 L 703.74805 0.37890625 z "
       transform="matrix(0.26458333,0,0,0.26458333,-0.1,-67.099995)"
       id="rect4485-5-7" />
  </g>
  <g
     inkscape:groupmode="layer"
     id="layer7"
     inkscape:label="Oben"
     transform="translate(0.1,67.099995)"
     style="display:inline">
    <path
       style="opacity:1;fill:none;stroke:#000000;stroke-width:0.75590551;stroke-linecap:round;stroke-linejoin:bevel;stroke-miterlimit:4;stroke-dasharray:none;stroke-dashoffset:0;stroke-opacity:1"
       d="M 1255.9375 0.37890625 L 1255.9375 30.615234 L 1197.7363 30.615234 L 1197.7363 46.191406 L 1197.9707 46.349609 L 1202.7188 53.392578 L 1204.4609 62.019531 L 1202.7188 70.646484 L 1197.9707 77.691406 L 1190.9258 82.439453 L 1182.2988 84.181641 L 1173.6738 82.439453 L 1166.6289 77.691406 L 1161.8789 70.646484 L 1160.1367 62.019531 L 1161.8789 53.392578 L 1166.6289 46.349609 L 1167.5 45.761719 L 1167.5 30.615234 L 1142.5527 30.615234 L 1142.5527 87.308594 L 1112.3164 87.308594 L 1112.3164 200.69336 L 1142.5527 200.69336 L 1142.5527 257.38672 L 1255.9375 257.38672 L 1255.9375 287.62305 L 1520.5059 287.62305 L 1520.5059 257.38672 L 1634.2695 257.38672 L 1634.2695 200.69336 L 1664.5059 200.69336 L 1664.5059 87.308594 L 1634.2695 87.308594 L 1634.2695 30.615234 L 1520.5059 30.615234 L 1520.5059 0.37890625 L 1255.9375 0.37890625 z M 1274.7344 11.304688 L 1279.1484 13.132812 L 1280.9766 17.548828 L 1279.1484 21.962891 L 1274.7344 23.791016 L 1270.3184 21.962891 L 1268.4902 17.548828 L 1270.3184 13.132812 L 1274.7344 11.304688 z M 1501.7148 11.304688 L 1506.1309 13.132812 L 1507.959 17.548828 L 1506.1309 21.962891 L 1501.7148 23.791016 L 1497.3008 21.962891 L 1495.4727 17.548828 L 1497.3008 13.132812 L 1501.7148 11.304688 z M 1590.6875 87.435547 L 1596.4648 88.601562 L 1601.1797 91.78125 L 1604.3594 96.498047 L 1605.5254 102.27344 L 1604.3594 108.04883 L 1601.1797 112.76562 L 1596.4648 115.94531 L 1590.6875 117.11133 L 1584.9121 115.94531 L 1580.1973 112.76562 L 1577.0176 108.04883 L 1575.8516 102.27344 L 1577.0176 96.498047 L 1580.1973 91.78125 L 1584.9121 88.601562 L 1590.6875 87.435547 z M 1387.6367 122.51367 L 1396.2891 124.25977 L 1403.3535 129.02344 L 1408.1172 136.08789 L 1409.8652 144.74023 L 1408.1172 153.39258 L 1403.3535 160.45703 L 1396.2891 165.2207 L 1387.6367 166.96875 L 1378.9844 165.2207 L 1371.9199 160.45703 L 1367.1562 153.39258 L 1365.4102 144.74023 L 1367.1562 136.08789 L 1371.9199 129.02344 L 1378.9844 124.25977 L 1387.6367 122.51367 z M 1590.6875 128.44727 L 1596.4648 129.61328 L 1601.1797 132.79297 L 1604.3594 137.50977 L 1605.5254 143.28516 L 1604.3594 149.06055 L 1601.1797 153.77734 L 1596.4648 156.95703 L 1590.6875 158.12305 L 1584.9121 156.95703 L 1580.1973 153.77734 L 1577.0176 149.06055 L 1575.8516 143.28516 L 1577.0176 137.50977 L 1580.1973 132.79297 L 1584.9121 129.61328 L 1590.6875 128.44727 z M 1127 137.87695 L 1131.416 139.70508 L 1133.2441 144.12109 L 1131.416 148.53516 L 1127 150.36328 L 1122.5859 148.53516 L 1120.7578 144.12109 L 1122.5859 139.70508 L 1127 137.87695 z M 1649.5 137.87695 L 1653.916 139.70508 L 1655.7441 144.12109 L 1653.916 148.53516 L 1649.5 150.36328 L 1645.0859 148.53516 L 1643.2578 144.12109 L 1645.0859 139.70508 L 1649.5 137.87695 z M 1590.6875 169.45898 L 1596.4648 170.625 L 1601.1797 173.80664 L 1604.3594 178.52148 L 1605.5254 184.29688 L 1604.3594 190.07227 L 1601.1797 194.78906 L 1596.4648 197.96875 L 1590.6875 199.13477 L 1584.9121 197.96875 L 1580.1973 194.78906 L 1577.0176 190.07227 L 1575.8516 184.29688 L 1577.0176 178.52148 L 1580.1973 173.80664 L 1584.9121 170.625 L 1590.6875 169.45898 z M 1387.1699 229.83398 L 1389.2383 230.25 L 1390.9277 231.39062 L 1392.0684 233.08008 L 1392.4863 235.15039 L 1392.0684 237.21875 L 1390.9277 238.9082 L 1389.2383 240.04883 L 1387.1699 240.4668 L 1385.0996 240.04883 L 1383.4102 238.9082 L 1382.2715 237.21875 L 1381.8535 235.15039 L 1382.2715 233.08008 L 1383.4102 231.39062 L 1385.0996 230.25 L 1387.1699 229.83398 z M 1274.7344 265.86328 L 1279.1484 267.69141 L 1280.9766 272.10742 L 1279.1484 276.52148 L 1274.7344 278.34961 L 1270.3184 276.52148 L 1268.4902 272.10742 L 1270.3184 267.69141 L 1274.7344 265.86328 z M 1501.7148 265.86328 L 1506.1309 267.69141 L 1507.959 272.10742 L 1506.1309 276.52148 L 1501.7148 278.34961 L 1497.3008 276.52148 L 1495.4727 272.10742 L 1497.3008 267.69141 L 1501.7148 265.86328 z "
       transform="matrix(0.26458333,0,0,0.26458333,-0.1,-67.099995)"
       id="rect4485-5-7-5" />
    <g
       transform="matrix(3.3817478,0,0,3.3817478,-865.27814,-270.13772)"
       id="g4707">
      <g
         id="g4969"
         style="fill:#0000ff"
         transform="matrix(0,0.6846936,-0.6846936,0,375.82704,-77.737181)">
        <path
           style="fill:#0000ff;fill-opacity:1;fill-rule:nonzero;stroke:none"
           id="path673"
           d="m 293.32714,110.03906 h 5.50375 l -2.9075,11.82625 h -2.76875 l 1.6325,-6.64 h -2.735 l 1.275,-5.18625"
           inkscape:connector-curvature="0" />
        <path
           style="fill:#0000ff;fill-opacity:1;fill-rule:nonzero;stroke:none"
           id="path677"
           d="m 299.60339,110.03906 h 6.47 l -1.4725,5.99125 h 6.00625 l -1.43375,5.835 h -6.0125 l -0.675,2.75125 c 0,0 -0.2075,0.695 -0.13375,1.13375 0.0562,0.33625 0.12875,0.53375 0.325,0.8125 0.23375,0.33 0.43875,0.4875 0.80875,0.65 0.35125,0.15375 0.97,0.16125 0.97,0.16125 h 4.695 l -1.59375,6.48375 h -4.8925 c -4.2875,0.0425 -6.975,-2.905 -6.975,-6.53875 0,-0.7925 0.2275,-2.06125 0.70875,-4.2525 l 0.31,-1.24625 2.895,-11.78125"
           inkscape:connector-curvature="0" />
        <path
           style="fill:#0000ff;fill-opacity:1;fill-rule:nonzero;stroke:none"
           id="path681"
           d="m 289.60714,116.03031 h 4.21 l -1.43375,5.835 h -4.07625 c -1.635,0.004 -3.33125,1.70375 -3.33125,3.21625 0,0.8625 0.42875,2.28375 1.84,2.2925 h 6.84375 l -1.59375,6.48375 h -6.67875 c -4.29625,0.0962 -6.955,-2.92625 -6.955,-6.56 0,-5.145 4.86125,-11.27625 11.175,-11.2675"
           inkscape:connector-curvature="0" />
      </g>
      <g
         transform="matrix(0,0.6846936,-0.6846936,0,456.41283,-77.737181)"
         style="fill:#0000ff"
         id="g4977">
        <path
           inkscape:connector-curvature="0"
           d="m 293.32714,110.03906 h 5.50375 l -2.9075,11.82625 h -2.76875 l 1.6325,-6.64 h -2.735 l 1.275,-5.18625"
           id="path4971"
           style="fill:#0000ff;fill-opacity:1;fill-rule:nonzero;stroke:none" />
        <path
           inkscape:connector-curvature="0"
           d="m 299.60339,110.03906 h 6.47 l -1.4725,5.99125 h 6.00625 l -1.43375,5.835 h -6.0125 l -0.675,2.75125 c 0,0 -0.2075,0.695 -0.13375,1.13375 0.0562,0.33625 0.12875,0.53375 0.325,0.8125 0.23375,0.33 0.43875,0.4875 0.80875,0.65 0.35125,0.15375 0.97,0.16125 0.97,0.16125 h 4.695 l -1.59375,6.48375 h -4.8925 c -4.2875,0.0425 -6.975,-2.905 -6.975,-6.53875 0,-0.7925 0.2275,-2.06125 0.70875,-4.2525 l 0.31,-1.24625 2.895,-11.78125"
           id="path4973"
           style="fill:#0000ff;fill-opacity:1;fill-rule:nonzero;stroke:none" />
        <path
           inkscape:connector-curvature="0"
           d="m 289.60714,116.03031 h 4.21 l -1.43375,5.835 h -4.07625 c -1.635,0.004 -3.33125,1.70375 -3.33125,3.21625 0,0.8625 0.42875,2.28375 1.84,2.2925 h 6.84375 l -1.59375,6.48375 h -6.67875 c -4.29625,0.0962 -6.955,-2.92625 -6.955,-6.56 0,-5.145 4.86125,-11.27625 11.175,-11.2675"
           id="path4975"
           style="fill:#0000ff;fill-opacity:1;fill-rule:nonzero;stroke:none" />
      </g>
    </g>
  </g>
</svg>
